<mxfile host="app.diagrams.net" modified="2023-09-06T12:28:01.669Z" agent="Mozilla/5.0 (Macintosh; Intel Mac OS X 10_15_7) AppleWebKit/537.36 (KHTML, like Gecko) Chrome/116.0.0.0 Safari/537.36" etag="UHxceyX7nuqTVplnx1DS" version="21.5.2" type="device">
  <diagram name="Page-1" id="6rUerTBkhJFPA0C2e9AZ">
    <mxGraphModel dx="541" dy="328" grid="1" gridSize="10" guides="1" tooltips="1" connect="1" arrows="1" fold="1" page="1" pageScale="1" pageWidth="827" pageHeight="1169" math="0" shadow="0">
      <root>
        <mxCell id="0" />
        <mxCell id="1" parent="0" />
        <mxCell id="Bu_Xx9DlRC_FPrtzAdTw-34" value="" style="rounded=0;whiteSpace=wrap;html=1;fontSize=20;fillColor=none;strokeWidth=3;strokeColor=#3399FF;" parent="1" vertex="1">
          <mxGeometry x="46" y="271" width="450" height="290" as="geometry" />
        </mxCell>
        <mxCell id="Bu_Xx9DlRC_FPrtzAdTw-3" value="" style="shape=image;verticalLabelPosition=bottom;labelBackgroundColor=default;verticalAlign=top;aspect=fixed;imageAspect=0;image=data:image/png,iVBORw0KGgoAAAANSUhEUgAAAkcAAAGsCAYAAADXKAMrAAABKWlDQ1BJQ0MgUHJvZmlsZQAAeJxjYGAycHRxcmUSYGDIzSspCnJ3UoiIjFJgv8DAwcDNIMxgzGCdmFxc4BgQ4MMABHn5eakMGODbNQZGEH1ZF2QWpjxewJVcUFQCpP8AsVFKanEyAwOjAZCdXV5SABRnnANkiyRlg9kbQOyikCBnIPsIkM2XDmFfAbGTIOwnIHYR0BNA9heQ+nQwm4kDbA6ELQNil6RWgOxlcM4vqCzKTM8oUTAyMDBQcEzJT0pVCK4sLknNLVbwzEvOLyrIL0osSU0BqoW4DwwEIQpBIaZhaGlpoUmivwkCUDxAWJ8DweHLKHYGIYYAyaVFZVAmI5MxYT7CjDkSDAz+SxkYWP4gxEx6GRgW6DAw8E9FiKkZMjAI6DMw7JsDAMOvUG/9wUzuAAAACXBIWXMAAC4jAAAuIwF4pT92AAEAAElEQVR4Xux9B4AkV3Xt6xwmx805aLVa5RyQCApggsjRYBtjYwy24eOEjQOOYAPGJhkw2CaZHITIQqCc42ql1Wpz3smpc/rnvOo787bVE3Z28txatXq6u+rVq1uv6p0699x7jdFFLaAWUAuoBdQCagG1gFpALaAWUAuoBdQCagG1gFpALaAWUAuoBdQCagG1gFpALaAWUAuoBdQCagG1gFpALaAWUAuoBdQCagG1gFpALaAWUAuoBdQCagG1gFpALaAWUAuoBdQCagG1gFpALaAWUAuoBdQCagG1gFpALaAWUAuoBdQCagG1gFpALaAWUAuoBdQCagG1gFpALaAWUAuoBdQCagG1gFpALaAWUAuoBdQCagG1gFpALaAWUAuoBdQCagG1gFpALaAWUAuoBdQCagG1gFpALaAWUAuoBdQCagG1gFpALaAWUAuoBdQCagG1gFpALaAWUAuoBdQCagG1gFpALaAWUAuoBdQCagG1gFpALaAWUAuoBdQCagG1gFpALaAWUAuoBdQCagG1gFpALaAWUAuoBdQCagG1gFpALaAWUAuoBdQCagG1gFpALaAWUAuoBdQCagG1gFpALaAWUAuoBdQCagG1gFpALaAWUAvMdQsMZAr+RL7km+v91P7NHwvoYJo/50p7qhZQC6gF1AKOBbqHsssHhpIX43V5MOAz4WBgVyQUeCYeCe+PRoLdtfFYUg2mFpiMBRQcTcZquo1aQC2gFlALzKoFDvSlrz5wvPMvuvqHLiz6Aq0lvzGhYCgbi0S7g8YcD5rCrrpY6OdLmmt+uKK+9visdlZ3Pu8soOBo3p0y7bBaQC2gFljcFjjan7z4QEffv+w73vXc3kTGmGDABEIhE45GTTxSYwI+nwkW8yYWKPY01AbvbohFPt0UDNy9rK2pb3FbTo9+ohZQcDRRS+l6agG1gFpALTDrFugaSq08cKLvQwBGr+8eyvjThZLJ5IsmCOYoHI6YaCRu4rGYiYYBlgIlEzRZYwr5I7XBwM/bWho+1VQTfaK9Ppaa9QPRDsxpCyg4mtOnRzunFlALqAXUAmKBvmyhpqN36C17Dnf8w6Gu/mbosI0JAP4AHJlizoAwMj4/QBFAUk0NQFIkbCJklUzRBEp5YKTsrpjJf2XLuuWfXNFc262WVQuMZgGMLF3UAmoBtYBaQC0w9y3Qm8hecry7//e7BpPN6ZwxDFArGr+JhMImBrYoFo2bENxr+VLBDCZTpj+RNMlsweRKIeOPN5lCuGbzoZ7BP3ngyd0fefLg8Q1z/4i1h7NlAWWOZsvyul+1gFpALaAWmLAFulL5tfuP935k37HOV3b0p0ymGDAFUzJ+0EWxUJBibOMLBo0/QJ6oaArFovGBUIrg+3A4bEFTPBY1A31dJjfYb8K+7G2b1y7/q+Ut9fctaaiD700XtcCIBRQc6WhQC6gF1AJqgTltgRODmdU9g+n3Hzje85tHu/pD/RmAH7jTjL8Ed1kB4AhOELBDvnDAhOBKC+A3v5/fQXNk0x+VTDqTMfV19fjNb0qFgunpOMJtn1naUv+5LRs3/NfahmDvnDaCdm5GLYDRpYtaQC2gFlALqAXmpgUOdPYvP9bZ81dd/ak39vYMhRLJrMkUfMYX8QMA+UwAAMlXzAAs+UwhV4BLLWdCYIqieJE1IntULBRNHTRIBEn9A0MWOIVqmvG72dQxlHhvfvf+MH78x7lpAe3VbFhAmaPZsLruUy2gFlALqAXGtUBfKhfee7z3PZ19Q3/SX/C3DOVLppBKmqG+fssKReM1xge9Ud7nByNUst8ZzGphgCKCoyDeuZQAjrCKyRfy+BuuNmwTgCuOOu5ULoP3fG97OPxvl25Z/i/tMR9yA+iy2C2gzNFiHwF6/GoBtYBaYI5aIJfNbBjs7X754QNHWlLBqGlYstJE4rWmCFTjA9op+QJmKJk0wSjAjj9gGaEgdEdh61YLACuBVYImid8XEK3mA3YK4PcAdEn8vgBtEr7Cb6apeyj51r2Hjj6Ejz+ao+bQbs2gBTRabQaNrbtSC6gF1AJqgYlZIJvJ1PZ2drz6xJH95+7b+bjZvf1hc2zfbgCcgmlbshzpsOMmkc2DPYojXo2us8IwOAqCFSL4saxRGSDxXcCTH+H9lCIVIdrmi4xTuhRYu+tQx/ue2H1wy8R6qGstZAsoc7SQz64em1pALaAWmKcW6O/vvfD40YNv7jlxJJbp7zJHT/SY3oFBk89mTUP7alPX0mYidbVmoLcLCSChPQp5bBABEF9QJXnAh8CJ70WItxnVhqg1hLiZUh55jwCoSkX42bgaciMNJIqXHOlLviZZKv1D3EeeSZfFagFljhbrmdfjVguoBdQCc9QCqURieVdX19s7Ojo2ZRJDSOYYNE21EdO5/xlz289uNnt2PmaSA90mBMfYklYIqwGMGNJPl5nHFnkHRrBExojgKADAJO40fpcDKCrhe29duN8IqmI14RMD6euPdAy0zVHTaLdmyALKHM2QoXU3agG1gFpALTC+BXK5bKirq/s5x453vKC7u8ckAI4KEFLHwfosa6w3fYmE2fXQnSYJNmnztnNN29IVprmpxaQLOZOja60MiIh5CIJkCUGDRIBEd1oWrFE2l4PWCNolarjxKuQzSAMQMwPd/UuPHutoxnYd4/dW11ioFlBwtFDPrB6XWkAtoBaYhxbIpDNnHDt27I+OHDne3tM/aBKpNHIUZU0Y7rC2hohprIuYoXTaHN31sBnoOWHOu+J5JrBuiwmwlhrzHXGBC60IAFQs64zIGAWhMyI7lAdblAMw4qsEpGQZJ7JLBuVH/BEqtkNDqVTNPDSddnkKLaDgaAqNqU2pBdQCagG1wOQtkM+k2zs6e248evT4hcc7TpgUQFABAKbkh8CakWhwhREANdc3mWg0aA52d5ntjzxosqWAWbN+g4lRnE3mCKH7aTJDzJJt3W1eJBt5JLrY8mCYqDfyIdqNBdn8iHwLB7EdWKVQNDQIMKWFaSd/GhfElgqOFsRp1INQC6gF1ALz2wJwgUV6enpueGbPM+/s6DgeLsFNVswiuSMyWwcBYIJFnwmhqKwVUxeDZnnrUrNsid+k0ynT/fDNpth5nlmxYatZunqNMfEo8hfl4DrL2sKzsSCAFdrIIElkIZc3fiSRDAUiXiC/DWrzm+wQQFQUVUTyqR3L2lYem9/W1N6frgUUHJ2uBXV7tYBaQC2gFpi0BfL5PF1YbZlM5iqIsP+2t7d32eDgoMFng9883RDZIIIYACPWTiMTxHxGPuiQWDetDlFrB44esutFIgEThwYpiuizQABNw8WWNwGwSyxAWzJZfM5Aa8TQf8sqkTkC5oqBiRpK9w8saW68pbGhoW/SB6QbLggLKDhaEKdRD0ItoBZQC8xtC8DF5c9ls1GAmpBNylgoNOC1HADlEri6ru/v77/s8OHDLZ2dnWZgYMCkUqmy68vTBcEvZgx1Q0ziCP0RdUTMdB2E1iiIv+sb2kxX76A5jEi25Zu2mLq25SYYisEth0SR0CzlUWaE2bFzaKvIdNmosRaAEpsqpQA1SqWMCeRTx5c3tz26prlWw/jn9nCa9t4pOJp2E+sO1AJqAbXA4rZAZ1fPGdAR3dDYULc6m82uBttDgLQaAKcd762JRCJ64sQJg9B9A5BkgRFZIy4EUsx+7QOYQUIjCK+DljWyhWXpboNuKBIIm3owP8taV5qugaQ5/PQTpq631yxbu9kE443QKQVNOpuG3siH2mvQIREQWXCE9qFPKsD95kMZkeZYJFfjL9V09/e1mlyeOMqXzuZCsVgsA4BWwH6zNTU1ucV9NhfH0Ss4WhznWY9SLaAWUAvMuAVycJn19w9efN999/1LW1vb1pbmxhpGiVEUzWSMZQbJdHd3G7BGpq+vD6H7CS85I1xgbvkPusCsG8xGnnkAKcjcRHSL4TsgHJNPFxHRVmvbPnD8sEkmkmbNpjNNbWOLSTJSDVVo/Vkv7xHddD6ALiIlRrUFSymT6h3Yevcz2z/tyw125fNZiL7jmXi8NldbW9uHaLfBSCRyAseyH5/3xuPxEwB5FG/nAuFINhQKZv3ocLFY8HV2dcfDsZp8fWNzBmAuWx8KeEhPl3ljAS08O29OlXZULaAWUAvMHwsAGMV27HjqHWCB3gVAtG7btm0mGglZwEOAQ60QFwKip556yuzatcsyR3SpeWH2nmeLIMgCKWwTggstFo3hFR0GSGG41iJsC4VnQUfZmms+iIjyJb851t1nBiHCblqyzESRVduPdgCDEK0GtgjNh6hbwj5KEH77B4+YQHLI+FODyHmEYLUwRNpZVF/LI8oNLFa+5BFGFgwFAkn0aQh9S+GVRlPpQMifAimVhYuv1D2YrGtcsmKwoXXFoVIo3r2sJbodBUu6/aViT9AfGAwHAkNgs/qXNNb0zp8zurh6qszR4jrferRqAbWAWmBGLLB37/7nP/TQQ++6/PLL1525ZTPC6o0Z6O+1oIjMDdkhvgiIjh49OswaERgJSyRAStiicDBkAU0QhWUtcwR3GUuCsFaaDwJsprv2Q0cUsCVBsmZFU43pSSbM3qcfNg1DWdPYtsTUNDRZxqiUQ0g/XXdARzmwRJ17njaxbM5cvm0LUgegtAiycmdzZJSg1gaSKvjBeBFUFQohbNeAY2jwAJwP6yVNDnXe+CrBxdfZB0F5tNkMBNMm4yuYA929Rbjucr5CIR0LBQbCfn9/2GcO/eqRPXc0tzT+ormmsHNlS/vAjJwY3cmELKDgaEJm0pXUAmoBtYBaYKIWOH6i84wf/+THf37e+eev27BhA8BDHoDGb7VEBEZwT1mXGlkigiOyRxKdxn1I0dhhNxoYH4KiEMARmJfh+mm2jhra9SGKjUALKAlABi65PIvQIiofWa/9AD4rWhrNkY7DpoCw/wJqs8UQzRYKRiHUTiNbdsEM9nabu2+9xbTEY+bcTWtMbV2NzaKdx2+M9qfmqcwaWVDG/ovbj/io1h/F/phiAAVssclQzodSbRETb2gwkShe8PwhAzdyBxQjgVKhIZtOrert79/Wn+q9/nh/4nfamwK3PbL/yKeXt7U8vKQmqi64iQ60aVxPwdE0GlebVguoBdQCi80C0O/4fvSzn70FRNGlZ529zYQBXjIQPGfBytA9RhBE9ogM0fHjxy1rRBE2tUYETlIPzQqx4UrzBNnIU+QyRRRT081WBksEJZEQNUlwg4E5yuO3PPMcgclhzdkABEbNoaLpOb7fdJ84ZlpWrTOrN58BITdC+5PIk3TskInlkwBeUdPR32fizU0mkAXAIeAhG8WZsnhyKVJht3h+mUQSbkT0MWJq0Nf1S5eYHoCwOLx9CfQ17sva9AOMjSsWkHASiSzjtXEeL5Jzl9Ydy5fWHTmWumog3fv3aO6Li23MzMXj1cKzc/GsaJ/UAmoBtcA8tUBnT9+qA/sPXvuiF74wFAIwyMPF5UWfAbgAqSDayx6ZuNOQ28gySGlkw+bvfFnAQVaoDJAIhCpf8rus4xWY9UTcLCgrbdF1RubKl0sgGSQyHuUGzbFnHjeHn3zIxDODZkVtwNQV09AjhW29NfanQNYI9dzE/UcgJ27Aau9czwIkrGfzMOG4jx05agb7oJ/K4NjRL2qcCI58dAliX2G4AaPQT8VralFYN2JqY7GNqUzud5453LNpnp76BdVtBUcL6nTqwagF1AJqgdm1wP33P/iixsbGzfW1tazVAR1O1tSgrEdfOUSfDBDC+Y2E7ieTSQs8CHJsFBnADVkZfpaoNDJOlS/+JoCJ64orzgNJHjiSGmo2Qg66ID9AUFPcZ+oDWdN7cJc5tPNh4x/qNitQs43gbGhoyDJZBFQSVUdrsn/SZrV3skas05aH+DuLlAFAZzY9QNDmVoK2Cr+7bcgZsuyTFYZDoA6glEhnL9139Pjr+4eSGiw1u8PY5r/SRS2gFlALqAXUAqdtgb5ktu4Xt/7qVc1QGVOLk2FtNAAGFJOF2yw5zMTQjYbisjaEn6ySMDMuUzQcru+AIBcQERgJIGLHRQMkbA8BDgEJ3/Nw6ZWQD8kCFDBCYSQ4qgmDMYJ7K1zKm0xiEMAoYV17yNA93E9hsdj2WMwRfydDRu1TFpFvJfzd0FCPvNyoZIIIO35P4Tegkv1XwO+s70Z2KocUBCVkp0S9W5S+9Yd6hhK/NpDOLT3tk6ENnJYFFBydlvl0Y7WAWkAtoBYQC3T19DcfPHJsvR8C5jCSNVL3k0olDNmhANxJUYTgszTIkSNHLHPEv60rquxCq3SlVYKhSqbIZYuEMbJgyHl5jA1E1xkItQMxuL2gi6aIGu6spUuWmlgsboYAishwWVE3Fu6Xy1hskfsb+B/Lhnmxawj9Zx4nsELHcZyIdbPHDoRU8YKeCWvbVx6uRPzuj8Sgl4ps6E9mNuqoml0LKDiaXfvr3tUCagG1wIKxQE9v/5Km5laUJms0Q4NDABsARwAe1NaEoLNB4kQbmUYhNl1YEqEmQGM05qgSJLlgSoznpgcQd5qwR/wtiOg05jgqIEs2AVFzUxO0P6i5hog2j9nxXHkEcJVtjneCyBpZZgmgzMIdoK9sKm32PrPLDA304Xu4+fJw90F4xBe8bsMvZqOkDw0JuY0fOqRgvLalo3/wsvH2qb9PrwUUHE2vfbV1tYBaQC2waCwAcLSuqbk5Vltbj5D5nMmlobuB+6uvr99yKhRhM9njwYMHrcaHixuV5mbFFpZI3GviRqsERsIeVQNHovNBXTckiETkG6PhinlTEw2Zxrq48cOllsulbLFaWahtktIlEjk33gmk2JzbcSFACgBsRaNhkxgaNP1w01mQRh1SObdTJSMVgJuP7BoL4/pCYX93b/8VBzt74uPtV3+fPgtoKP/02VZbVguoBdQCi8oCuUy6oZjPhaihYR205GAaehokWwQg6UNR2Lvuvs08+eSTljki8EDNMoNSHMMvyR9EIESgxM/DCSAR/i8MUqXWSECHMEbuZ3GVZRE1RhBSA3dabV2tTQRJUONn3qKyrsnVLfHEuQLxsU6kdafZYrpgjqw+KWfqaqKmGaVM/EUktWQEHUXnZZ0UBdwC8mzSS5u7KQg2CdF9TK1U8q9O5IoNaDa5qAbQHDpYBUdz6GRoV9QCagG1wHy2ABiTfNLWRsub/sEBsDQABABBkUjU7Nhxr0HGbLN3717T09NjtUYEOWRcWltbzdq1aw3qr5nm5maImRssOOJvUkqEwEhyCwlLQ50PWRl+XynEdlka2tSHyLEg2ovVxA3qniEfUhDaI4Tgw62Vy3ilQQhYpGyJACN+L6BJzo0LzmzbFFmX68GhK+gT6rLBjdja1Gjq4gR4XiSesGTss+Ruoi6LmqhoOG6ycLdl4XYLBCL16YKP4OjYfB4P87nvCo7m89nTvqsF1AJqgTlkAbA8KYisc8hbFKqNo9grXEUN9fUW4JAhamlpsa416o0IFghuGLlGsMT8QsyBtGXLFvtqgiaIySJdtoh/E6gIsJJwf34WfZEbVSZpAcQ9RqaKL5YZsSxPGVTRxce+kKkSpskCmDKDJW620cAR2bEAouGoW7LgCrqmAKLUmMKAqR/pWsyXC+eyzzwuYY5sjTkwTQRv1B55fSqhIyWv+Jwus2IBBUezYnbdqVpALaAWWHgWaG9v3wXgkzhw4EC8rRVlMwA2CHgohD733HPhViqaM844wwIhutY6OzttXiGsb6PXKIYmUDl8+LBZtmyZufDCC826dessSCFAIfBwa7MJ6KGwW9IBuDmKhK0Rxob9IcAiACIYku8l5J/vTC3Ad7f4LT8/iy0iRVReCI58PuqKAGy4LtyI0TBSPqK/PZ0dJtK8FPXaAmCqAIBY14QACNtQmM3yJyUCJ3yNvN82mSS2JIU1IoRaeENlzh+RgqM5f4q0g2oBtYBaYH5YAODoKMDHIHIFtfX19pmzzzrTxAB4ipjn+1GMldFqdJ3V1dWZJUuWWLDD6LXt27dbkTZZJMmYze+ZOZv5kC644AKzdOlSG91my3mU3V/8TDAlwmvRHImLTdxwEoXGzwJ6xG1GQCYJKNmWsEjCRhGYcRF3W3X2CEAH2RxZGqQEt1gQZUzyBaQGgHvtyIn9pnbFBhOBK8/DU8z87bkBQTFZlxs1Wix9wkg6u4bfX0RfvbwCusyKBRQczYrZdadqAbWAWmDhWQDaouSatWuGCGoIhMjUcCFDJKCHiRYF4BCUkCECqLLf7dixwzzwwAM2/xFBC9kkuuDY3mWXXWZWrVpl1yOAIcMjmiWX+RG3mptpmwBHxN5kjLjwO8miLckeCYjILLF9Yaokak7WqQaOUPbWJnYsFqGL4j8fROhoi9QQi9ryGALhqHWv5RDFZ9miciZvy2RBtA2/HKBSOUM4HG0AUl5HdZkVCyg4mhWz607VAmoBtcDCs0Bt3J+58IIL+rY/+qBpbWv1kigCBBw4gIKvXX0WdFCHJOVBhAGiDgglRyw7dOWVV1oW6b777jN79uyxrBDD/6lVOueccyyLRME2vydzxH1I0kdhkFytkexLXHCyPt1zArTIWPFvAhVqnQigRGAtLFS1syWuNoKhEsPMmCsJL0bnUaYNDMRSsyaVTpk6pogkc8VINdZYwxoWcIEtsnmQuI0ljqxTLY12UgtvhMyfI1JwNH/OlfZULaAWUAvMaQukM6Was87algih2n1DfQP0QVGzd88ugI0cynL0Det8JJcQwYUwOgQ4dLURMBEEXXzxxeYnP/mJefjhhy3zQgBz1113WRaKAGn58uUWwND9Ji4yYXcEtLg5kQh4JPO1ZOUmK0SwRkE4tyVIQ+mTYdeb1VZbRoiaopPLnbmf/QRHXNcP9xh0RyWUEPGz2C1KgkgtOcuWMWoth3UZkVauJYeDII/F8H3gIqiO4HILBUODYJkUHM3iaFdwNIvG112rBdQCaoGFZIGhRP/yJe3N61eteB40NjHTNzBoOjq74VLrBOjxKtuLvkcyUZP9YSj/5s2brXtNtEcUYr/nPe8x999/v/nGN75hWSQCKeZJIph5wQteYNkmMkAS/SbJFSXKjADGLTkiUWfcRqLbuA4F4CFky06lknAHMvSeSRmZF8nTG+XB7LAkSuUyApDIkLEESDkCjhJ0RK/lsnlTj6i1EAAPcx3lAJroOvP7QybDWmyst4btYqiqlqBAPIIUAyW43Uqpg6FA3dBCGhvz7Vg0Q/Z8O2PaX7WAWkAtMEctkBwaWA9g0dRQVwMXWsZ0nOgwXd09KDDbZQb6B2yvXU0QPxPwEByRNaK7bMWKFRZAPfbYY+app54yl156qfnABz5gXv7ylw+DK4KZr3/96+bpp5+2rjWJMiMjxEUYJEkFwHXIHJEl4iJ6JRFn8506J4IV/u2KsgVwjVV4No9yIQW8PJYJL/wrMPEjM3OXEz9aEfZw6VnvN2i47StfIPMEVonRbKVCLhL2379xaasmgJzFca7gaBaNr7tWC6gF1AILyQKIQsvX1kSRsccghL3LHD12xKQASOhaYiJIESET/HDh94xeW7NmjalHPiT+zlxIZ555pgVJu3fvNrfddpt1ab3pTW+yLwq9CV7oXqPbjWkAJCkk25S2JVJNNEMSti+h/KJFIgvl6Y1C6Mc6tMVcRwApYH6sJMi+CHyoCxp5ybFYl559EfB465UAdgrQIHE7giL8go5Bj1TOm8T1aaQAy9Si/TSj3FCcliVG8FdXQ03NvQtpXMzHY1G32nw8a9pntYBaQC0wBy3Q2Fh3IhQIIkv2EBijDkSZ9Q9HlpG5Yc4jSYJIQEO3Fb+T77kOgQ8Bz6FDh8zGjRst8Nm3b5/ZtGmTefWrX22Zpm9+85v2O+qQHnzwQQtuCLIk+kyAENvjd6Jx4veMfON+6YoTNx1SD8BF12Q2bNhgdUdsT3IrCRMlYEvMLqH9VuhtARTdZfgVVBCwkadRAsBi/iJht4LQHIkw3CqYAJ74nsd6gUAIou4M+mr2NtfW7JqDp3dRdUmZo0V1uvVg1QJqAbXA9FgglcpEQn7/6mwmXcsQfIbuJwaHrDtLhNd8J3NDsCLiaAKH7u5u+yJ4ocuMjNCdd95pWSKKr7ncc889FhBdddVVFiSRaWLb1Cjde++9VofE7dm2aIGE6eH34hbjNsI0cd9MRklAJnXeJHeSaJI8Fx0zXzM3kTBJ3rt85wm3y9/Zd4T2I88REh9Be+Sz7JlNOkk3GtktUmvlJc+yIxZg4UvE+cf95qbGmkjH9JwlbXWiFlBwNFFL6XpqAbWAWkAtMKoFgsFAc09X1+8dP3qktuP4MWiMvNB96nskeaNkmhahNEXZ/Ju5jyQBJBkj1l+je40ghqwOGR2WFKEu6MiRIzbb9mtf+1qbI4kLs2wz3J+aIrJBUhaEf1N3RB2RhO4TcBHw8DNBHPvE0iYrVqyy0XV0qQnYoWuNAMgH+qfSpea61YBubHC+xybBlWbhlCe25pJNpU2R+Y0Y3j+8Hn5nHTZm1+Z6AFMxv3m6uSb8g2UNNd6GusyaBdStNmum1x2rBdQCaoGFYQFoa4K9vf3Xdvd0XsaIL7IutXCX8ZVOZ224vdRDkwKyBCcUYBOYELDQtcbvGIFGUERGh4JsusGoSSJAIvvCfEdkpc477zy77be+9S2bRZvMk+ceaxzWHbEdskbsj4Ab7p+fCbTIOtF9tnLlSlvWhOyRhPmLqNvNyF15toShCrA0iAVDAEasseb38hzxVUSYvw/6owDrrdHvRgG2LTeC3/ERciPjAzAK+n2plvrYV5Y11e9dGKNifh+FgqP5ff6092oBtYBaYNYt0NPTu23nzqf/5MTxg3U9Pd0QYh8DACkgo/VqAJu1yB3UbAXOhw4dGA6PJyiRQrAERfybQOb888+3LrMf/vCHlgmiMFtYJAIbAiWCJLI+1CE997nPNbfccosFO2SgCG7QdhrgwweAEyHIkZpttsgrFpYvIfjib4yUIyvV0tJqi9FKMkgBSV76ATBI5dIe3L4y55Gth8awMxumzxzZZJyIlsg6gVXCexDHJqwR98GfrevGutRyxVAg9MuGmtj31rQ3ZGb9hGoHUA1QF7WAWkAtoBZQC5yGBY4cOXRGd3dH+4qVa8zSZSttoVmvFMhDSOL4qAU3BDIEScxlRDE0QQMBEVkjqW9G8EPgQCH27/7u71rWSKLP2D0CFkapkSXiemSA6GKT+mwAUs8g0u2bYJQex+8+uPRWYbMo3Gt57LMBoAkMV++ZiIK7Bm3VkDFi35gVO+AP2rxE8VitBXAEQ1YrFYZAm0cUcqLVLIga8Xzl4IrjsaTTeYTlFywDxhcBWwgi7AhmWn+ASSHhWPOHTQRACnm0kSwyYWIhf0ckl/3+mvbmfz5/Q9u+0zgNuukUWkDB0RQaU5tSC6gF1AKL0QKrV69+GO6sDgCNJQQE1BiR9aE+iK4uRp9RF8Ss1nRfEZQQKFETRNcX38niEJQQDAlwIgAiQCIg4vpcCIyoZRJxN11rBFPY/sA111zzJ5dccsnPAExOyi6NNgJgowoAUVGs1wA33H+iPy9nm8yvxL4mk922/WzOa5t9IWgrlvIWlDFvEekghueTIWKAPhfJws0+0TXIbXlM3Aag6wQSPyabgpGWcDEb8WdSkRg8cGh7CLVme3x+/07khPq/FauX/WjzssauxTh25uoxKziaq2dG+6UWUAuoBeaJBQBQOuHSOgCN0NkEL2SAtm3bZt1jjCKjG4wAhwwPy4HQJcaM2NQcUVTtud08QTPfJZO1hNMTYAkgonBbABTXp+Ab+0vAHfclgLS7KoERTUhgxHcAODSTzr/oRS/6NArcPg+gqYFuNS+sP2atTWAn+ihbMBYgyRaptX4yesFQGQ3+MJb54PcChuh+c7JxF5Ba4EsolPsJ6IxSTx88/ryoL1cbyQ3W1cfrsrW1sf3FYmBfKBDdfd665cfmyWleVN1UcLSoTrcerFpALaAWmHoLAMxkwA4lCGKETSFQIPghwKCLiYJqghqCJAFA4iIj4KF7i7mKuC7XI5tDoCIvMlISISbh+gQk3Bbt3Y4Q/8+gcO247AsAUTtceetRv63m+9//vt0X2SwRbBOYkckiwGMfCOxs/bdhlogyawIk/B/bukyXACT07w6wWf8ALdOesrWfnHqra4vTaQEFR9NpXW1bLaAWUAssAgtAb5MCE/NzgJTrACSaCWTokiLgeeaZZyxjRKE1wRMZI+qMGFVG8EGAZHMiQUwtCRslaaMAJIIOEUhLbTa+k03CNh1nnXXWxwGMDo9nauzDj/1dDXbrL+CCC9Jlx4SSXMh0BaEJKkJrlM2y3SBAFzNnUycEj1pZYmSTQZZBkSSbFEBVzrrdg7582gFG43VLf5+DFlBwNAdPinZJLaAWUAvMNwtADH0z2KOXgel5KdxsPgm7J2NEFonh9tQHUbhM8EOGiHof6o+Y+JH5jQgy6CYjqCLQ4N+S5VpcVm6oPcET2nsYEWwPTsRe6NtmALd3o+1V7McNN9xgw/mZI4lASYrfSn01cZl5bXsC7ZHXCGvE4yGrxWMCKLwd7rRfTqQ/us7ctYDNYK6LWkAtoBZQC6gFTtcC+/fv3/qrX/3qMwAtV1F8TSE28xLZaDAAJIIhgguySmSOqDWSumoUbLOWGlkmgiNqgSSJpK1XZsXQqFlWjgYjMIJLrQNRcO9AzqPvjNd3uPfq0Ze/xvsfgcEKEsjQZUf32Xe+8x1z0003IfXAKrN161abPoCAR1xtNskj1iNTxPWR8NKE8OLfUg6l7H47BjD4W5dddtlPx+uP/j63LaDM0dw+P9o7tYBaQC0wbyywdu3aJ3fu3Pk+RKl9EMDmSgIcLgQ5BDcUa5fZFcvUPPTQQza0//rrr7eRbFyHgm2KuAlOxJ1GYMVFap4RtAAcFRAd9kOIsG+biIGwv1fArfYGbAdME7SMlGTshkAbfxfNI488glIk95m1a9dY0MZ6a5FI2IqwfehDqAyGQvy7nGBSch6hvRJcij/FdvdNpD+6zty2gDJHc/v8aO/UAmoBtcC8s8Djjz9+A1iav4ML6xIKsgmEpPiqzSFULhTLRIzUGl199dVWsE0tEr8jg8R1mKyRLwIQiSDj99Q0ASA9cOGFF74e0W7jZpQGG7UVuqb/xr4u4f7cjNkEWl7qgBrz6KOPmttvv9262Qh+6PJra2tHH2rAfjUOZ9AmYAqHIxb0ibsPbdyL/vzWpZdeunPenTDt8LMsoOBIB4VaQC2gFlALTLkFtm/f/lzojP4UDV8DYBRnVJmE9dN1ZhMsIgqMzBHdWAQsdL8xV5AItQk+yD5RH8TfyTqR7YFbbBDA5S8hev4U1rdh+qMt0C3VYn/vw77fg79j1DGxjZNqo2HjfN5z2fFFVyBZJByDBUAEaA0NdRYwSV4mbk/XIPsMN+ARCLp/DyLvm6fckNrgrFhA3WqzYnbdqVpALaAWWNgWOPvss38FFmgPWKD3gK15LQDGCoIcJoaUMHm62QiUCHwIkAieqOHhegQdFGlL8kh+x6WcNftxrP/98YAR1we4uQxM06vxHqMrTXIo2RIezov7JbtFAIYs22bdunUGCSVtNF0ul7UvgjYuEm1HVyAAXhbs0/fgTrtjYZ/RxXV0yhwtrvOtR6sWUAuoBWbUAgBIzEh9IxI/vg1s0QVgZWokKSRD+Pk3BdrQK1mWiC4zRrXxM1kbutgIWOjiItsEQHUCQOQvLrrooi+MdyAAM80AXB/Gvn+L+6FrzgVHrnstk8kN5zeS+mrsB5msUIhlTZhOwCtgy34QINFFh7Z3ID/TGy+44ILHx+uP/j5/LKDM0fw5V9pTtYBaQC0w7yyAnD/96PQXwQLdAdboNwB43gCWZhPD/Qk+GMZPXRKBC91sZJb27dtnQQwLwjKijSBKMmHj87fB6tw0niGwHx/avR4A6XrRO4k7jdtKJBq/48J9Uz/Ez/yN7Bbf2bdikcVnvSg7fs++ERgB6KUA3L4CIKc6o/FOyDz7XcHRPDth2l21gFpALTAfLYAw+X1wiX0QAONesC1vAsC4Gm6pVdDt+AiMGL5PYEKGiC4uEXITjPB7AJx+lAH5Jrb5CNYdNxM2wNFmtPFbAFUrREs0HJpfBkfiVqM9Cygmy4UsFXVF3ndeEdlolLXfUFQWoEjaoosN+7gX/fkKAFt2Pp4T7fPoFlBwpKNDLaAWUAuoBWbEAgA3aezoJ9Dx3AfG6BKApNcCMD0PAGYt3GU+MjN0V61fv94yRRRxwx2WAquzHyCKjNFnoDUaNxM2tomgvVfARXcZQYy4z4QVkjpuAo4Yqk/XGRfJqUSARGAmCR75G0GbME147wIr9u8QYh+cEePpTmbUAgqOZtTcujO1gFpALaAWgEaHRdh+Cmbnzh07dlwNoPQqAJWzAT5WAdA0wb0VxN9DeN8NAPIL1Gj7MRJIPoy/BydiPbBMZwIUvQYAq17yGbniazeppNceC96acoJHgiIWm/XbF11q/J1AiW1I9mwArl+iTyrCnsgJmYfrKDiahydNu6wWUAuoBRaCBaA5SuA4fozQ/F+BQWrD+zkATFvgrmoGg3QAYOh2hPrvw3pknCa0ABg1QoT9WoCjrW50mruxqz0aKQciIKlULirLUiEoGmJf/mGXGlkoAKSDAHj/DmF4z4Q6pSvNOwsoOJp3p0w7rBZQC6gFFpYFELafwhHRPcXXzXCn+cEWlUu9ntqxsnQJABbBUVRYIwt7yuVHyBrJUi4UO1wWhIJsMkR8pwtNFgFTXB9C7BxD9wHcHj21nuna88kCI2d/PvVa+6oWUAuoBdQCC9YCpwGMVsMt9za8NlCzRBeY6Izc6DQCJS4EO5LhuvKd4Ii/C5ji74x6Q5t3Q4T9cWifyHrpskAtoOBogZ5YPSy1gFpALbCYLAAQ5Ic77goAo8sZZk/WyGWJ6A5z8xoJOBL2yGWRBBhJ3TQBSWi/A8LwT5577rm7F5NtF+OxqlttMZ51PWa1gFpALbDALADgcgbcaW8FMGonwyPASFgi1zXmAiFxoY1oj07OjSzAiIALLrebUOj2lgVmOj2cKhZQ5kiHhVpALaAWUAvMawuwdhsYo5dDq3QFQQzdaRKdRlBExqiaK436IrJEBEgM2ee7LG4OpDLr9DRE2J8AOGKknS4L3ALKHC3wE6yHpxZQC6gFFroFAI7ORrTbmwCQaqg1IpiR/EQCjMRVxncBRPI32SECJS6VAInfAWAlUdvtC9AaPbnQbanH51lAmSMdCWoBtYBaQC0wby0Ad9oysEWvBzA6k6yRgCE3K7YcXKWuSECSG6HG7QQgcf0ya3Qv6r59FZmwc/PWUNrxU7KAgqNTMpeurBZQC6gF1AJzxQIAMgGG7iOv0WsAjvyS14gusXI+IutOc/VELlskf/Od6wm75AIkuOiOoPjsv6HO27iZueeKXbQfp28BBUenb0NtQS2gFlALqAVmwQIAQKvhTnsHwNEKiVCT0H1hjkRr5LrSqoXtC4iiO47bElCBlSri+28ibP/2WTg83eUsWkDB0SwaX3etFlALqAXUApOzAABMDQDRjQBHl7B+GiPUyBZJ3TS2KoyRyxC5wEgAkyR/lLxIdLOxPbT7ZF1d3X8BHA1Mrpe61Xy1gIKj+XrmtN9qAbWAWmCRWoA5jQBcrkRx2XeBNRoWYQtLRLMIE1QpvnYBEUFRZQi/hPwjLcAQWKTPL1u2bNciNfOiPmwFR4v69OvBqwXUAmqB+WcBAJgNYIz+AsCI74YRagJq3BB8yYBdmQnb1R0JkKJeKRKJWFBFJgrvt6BEyDfwUhH2/Bsip91jBUenbUJtQC2gFlALqAVmygIALS0AQ2SMrujr67PAyM187WqNKlkicam5GbAlCzZBEX/nO9xre1paWj4IEfbRmTou3c/csoCCo7l1PrQ3agG1gFpALTCKBQBcluRy2T8CMHpLZ2dniOCoskyIbEoARO2QvFzdUSVzJHmOymH7afz+lSVLlmzXE7F4LaDgaPGeez1ytYBaQC0wbyyAciCr0dk/HxpK/X53d29jf/8gosmyYI2KYHxCYHyMLRnCV6UbjZ/D4bA9VjJLwijxM9cXrRIF2XCp3Q2d0f/glZw3xtGOTrkFNEP2lJtUG1QLqAXUAmqBqbQAM2AXi6X3gSW6saurKw4htkFeI8saEeiQ8QkG/QBFXvbrai+CIIlKI5skUW0CjvgbwNExuNM+fMYZZ+ybyv5rW/PPAsoczb9zpj1WC6gF1AKLxgLINXQBosb+AfFnr+nu7okfOXLEEBwxrxHD7bl4ImzPJAKApKCsACWuQ1DEPEbCGAnDxM9sC2DrhxBg37NojKsHOqoFFBzp4FALqAXUAmqBOWcBuL9CcHG9AB37d4CYlwEkBY8fP2aOHz9ugRHZIgFDlXXTRGfkAiT5m9uIgFt0SfwOkfu7AZyY06hvzhlDOzTjFlC32oybXHeoFlALqAXUAmNZACxOPcDQKwFo3ovXNgAXQ8bo8OEjhiJsusKk5MdIPiOfZY3ciLTK5I/iSnNzG5XLjKQQxv+/0BmpCFuHprWAgiMdCGoBtYBaQC0wZywAVqgV4flvB/vzdgCWVQQvdKPt27cPrNExm4NICsUS5IwIrL3INLrNKl1qApik8KyAI4Is6pbwehTutC+tXbtWRdhzZiTMbkcUHM2u/XXvagG1gFpALVC2AIDPCoii/wBg5q0ARm38mmCIrrTjx0/Yv6XumQt4xI1GYCTgyAVI/F2YJrYpDBKBF5inrlgs9mmIsA/oiVALiAUUHOlYUAuoBdQCaoFZtwBcaRsAjN6DkPu3ABjVEcDQnXbo0CFz8OBB09/fN1wSRML1hSlyQZFbLkSYIvmOYEgK07IN/o1tb25oaPjprBtAOzCnLKDgaE6dDu2MWkAtoBZYXBaAGy0IoHIOXGl/AlD0CrxHCHoIXsgY7d692+qNmAlbwA7BULFI1oeuND/caD68B6xbTdZxkz9Sl0SAVAZD1sD8DHfaLoCxj2/evLljcVldj3Y8Cyg4Gs9C+rtaQC2gFphHFujIFCL+fD4Y9JWKRX8wMJQpMfy9yZ9PpLauXX6krr6pMFcOB0xRoL+//0KAlD9Hn16EVyQej1vgQkD09NNP23e607i4Qmq6zZjYkUBJ3GYCetz1pDwIgRHbJsjidnhPY9tPb9iw4fG5Yg/tx9yxgIKjuXMutCdqAbWAWmBSFjg2kAof6e6/qrs/+bzbtx/cEA4gmiuXCdbWNaSGEonGhx64f0M4nxrs7z7jlltvvTUB8JEHaMjjPYNXCq8EPicBMgagvxkE05Lj73gV+cLvRXSsCDBRBCixGYXwPVPB4M3nL4MRPyLMwhBPN2C9PIDIAF6JmpqaBNxZQbaH77m/bDQaLWJfIRSNPbO3t/ePsN2vYb0wvrfHzwSPFGDv3bt3ODqNYEjAD8ETAQ4LxfJVTYTtAiRuJ8JtAimKsAHMHkB02nfgUvNyAuiiFnAsoOBIh4NaQC2gFpjHFugYGKrd39nz2/u7Bn+3Zyi3IRTBvwBwS6FkQsZvcvmCCfqKJgyGpaun57JCcpCIhuxRqfzOvwkQCnBl5QBksuXPRYAkgqICARLBEZY8XsI8WWBEgFQGST4AjuDhw4fDADXAL/5ce3t7GgAkvWrVqkRtbe0APu9uamra0drauq+uri7Q0dHxTjBDN2C7MPILGQAkqzFC3TSzZ88eC4xY0kPYHzlNBEcERC5zVC1CTQCSbEfWCOCPeZI6sK9/3bhx48F5fOq169NoAQVH02hcbVotoBZQC0ynBY73Dzac6B36/d5k9l3+SN3yxpqYifiRNbqEWmKhoKmNhk2u77hZs7TRNNXETQGMSSDazC5ZGgbgJ+hllx55ufmDpOaYvEuUlxyTbCef+TtBy9GjRw2Kw9pki2SB6uvrDcARQ/JzADF9AEa9ZI6gKVoFIGX7IDojskXcnnojMEo2LF/AkeQtqhRgSzJHN6+RC4xEh0QdE4ARmbBvAbTdMZ3nRtue3xZQcDS/z5/2Xi2gFlikFuhJ5sKdg8k39GZL7yz6I8tjkagJhOPGZDMmX/IbuqhSiX4z0H3CABaZukjQpED6SAHWMjgaLrrqAiD5zQU91QBRJTjiZwIh1D8zO3futOCG4Ih5ilauXEkXWAiAqQ3f8WUB1IkTJ4aTOpIpojsNrjarM2J7oikiwCFQohuNx8bjkHxHLmtUTW/EvtOtxm2wj0eQ0+hTAEd9i3To6GFPwAIKjiZgJF1FLaAWUAvMNQsk8/mzexLZdwykiytMMGLCcDWVUoMmGvGZZMFnimCPMpmsiQEQ1IXxGW62eE29KeS9emRchJERYOSCImGJKl1TY21DsELwAuBhdu3aZQEJvyNY4nb8m4CIIIi1zOBWG3ad8TPZJa4rIfdkgqRPrs6IrjEBRxKmXwmKKl1xbAf76Idb72MARzvn2vnU/swtCyg4mlvnQ3ujFlALqAXGtUCqkAnt70q+tKN/8OxE3mdq4xHoigCOENYO4ZDJpHKmVMyZbDpj4hQtm5JJpvh3zbP0O5U7IwtT6U6r1iEXfLiAiWLnxsZGq+0h+0MQQzcZwdJZZ5017HIjcOJ+WCeNuiKuy7xG/Cwh+eIOE4AkImzRGlXWVBMwVQno6E7jcaHtZ5Ds8RZonuZMxN64J1tXmBULaOHZWTG77lQtoBZQC5yGBUqBpoFk/sU9A0mIoUvGh2CyHMFGKGayvohJA6DUgHUJpPqNL9NrSgWU3EAEmw9ghEDBfbnutGpsS2Uvub5s77JP/I4LwRHAh4EI+6T9bN++3YIhMkMPPfSQ4We628R9RrE0XW0ETQKcCJr4IrChe43uNOiVhlkjiVKTPvKzACYX5PG4uB8wUjsA3HpPw/K66SKxgDJHi+RE62GqBdQCC8MC+UyyJpUvbEWank0ZCqzDEXtg8KLBZZYHQ5Q0/mLJDA70mDT+jpTZJLrZcnCzFRGAJiCoGhgSkCPWcsXawshIhmp5F8Ak2acJUBCZZtkjfkftEYEL3WkEQYxG499kgAh+uL2AGbrlCLDYBrfnPuhmIzDiZ9EguQVm+Xe5FIj9XVyC/I774O9kr9CPINpWUmBhXArTehQKjqbVvNq4WkAtoBaYOgv0DyR8+XzhgoLx/TlcRA3UFEWgwfYi6m0sPsBH2tSEADoGuk0pm0Z5cZ/JAiyBYLI6n0AQTBOYFC6uG8oCrHLUmvu3+51sR8BSqVMSgMPfJMqMLjICFH5HEESAIu4zJnekSJssk6xDIANNkGWQ2FcuBEtM3sgwf74L2BGGSACbsEbiQhONEz/TXUeBOPpYD3AWQrOpqTsr2tJCtICCo4V4VvWY1AJqgQVpgb7+gbMaayO/XwyHrqeGCEmJDJ1ZKI4BAAIQlCvgu5KJxgMmlU2ZYIklNgL2u6AfomwWWqUbDuBIgJGADBpMgIa4tsR9Vsk0yfcuq8TtpV6ZgCuyRJJ8kQDlwIEDFgjxRXaIYIn5jdgHAioCIUa7EQRRrM11CIqQqNGKtfm7RKZJX6UP/K1cEsQehzBMBFrIvWRdeGiLiS1Vb7Qgr46pPSgFR1NrT21NLaAWUAtMmwUGhhLPCQXM1X5f2JfKpAE8Ssj1WDI5hOgX4C5LADDlC9AUISLNl0mYMHI35gGMMoADtr4Y2CNJqkiQIcJnV3dEgCGuNQE7AkAESMlnV3vEg3YTNhKgkOVBFmxrD7rRyAoR6AjYYtj+li1bTEtLi+2LpBkgm8S/CZC4rutSc0Gd5GRyBdjSR/aF4IrsFXVO+L6E/R9CW8oaTdsIXTgNKzhaOOdSj0QtoBZY4BaAbmhlKp1uDgQiJpPOgTUCGwTqCK42hOoXTTKdIi9k0mBpipkhE/PnTToD8BRAoVaAhRDXLcK1Vo5Ic8PfhTki8HG/52cCDbI9wjgJAKkERwKaRFBNNoeMEfdHFontiIuMv1F7xKSP1CfxJe46giEySHyne01qp4mWyD3N0ifuk4uAO7rvuD/pC5ikgba2tkfAQHnKcV3UAmNYQMGRDg+1gFpALTAPLDCUyYcPH+6ozWSHosEQaoMVUPEDkWms3lEAMCrkqespmBhcUjkkf/TDreaP+E0+C30QQAbdViVoj4oATAKEXN2OgAoBRgKgBBgRpBC8SOkON3xf2uO7RJcR/DCk3wU3/J2gp7m52brLUHTWPPPMM+bcc8+17jUCMLrPCLIovkZRWKs/EtG2AB1hjOS0iSCcn7kO2yEYE/aqnDTyKMDRQ/PgVGsX54AFFBzNgZOgXVALqAXUAuNZIJlKNQ6lU+c1QGBNV1kOWbBRCs0E4CvLQFeUQmbsYiljcxolBrtNDA1m4HbL5sGepBImm4Q424eqIUGPOBFXWmVOoUoBtpTkINCgm4pgh3oeghe3GKxErrFt/s12xT0mkWT8XnRFdLERsLFMyMMPP2xD9JGDyP4ufSDLxP0I60TgI+wR+8J2JQkk+8TvuI6UF+Fv5czY+bVr1/5q9erV+8azs/6uFqAFFBzpOFALqAXUAvPAAt09vVv6Bgc2LF/WagZQUjYFtigSBkhBWZCsP2yS+YRpjKNafb4fQClhfOEo2CW6wwBo4G7LpgAc/EgWGcaNH8BFQIarK6IZXJcZP0vIvLivyOKQzSFwISMjeiABKlyP67BdEVfTxUXgIkwOWSOCI35H9ujxxx+3IIjRa0uWLBkO7RfxNd8JygimhJlyWS9hjKTciAA39olaJ4Cl7Sgy+7GtW7cOzYNTrV2cAxZQcDQHToJ2QS2gFlALjGeBXL6wFMVka6MssTGE3EHQGUX8YIwSEF/HcsYPt1p9LSK2BoZMFBqjYKkAUJQ2QwAyafxWzEGcjUSQUV9wOEyeYMXNa8TPBCJuNJp9igaYIggSZoYAhVoiAhYBPcL4CKAiQBHmR1gltsPvCZoEIC1fvtxGrREg8btXvOIVBkDGmoPt0zUnOY/4mQJrEWmzPbdv7AM/C1PF9bFtDxijT61Zs2b3eDbW39UCYgEFRzoW1AJqAbXAPLBAXV1NMp3LB4JghLp7jyHpY9A8/cxuc7ymwyxbs8WEkCXbn/Gb3NCgCRQR4g9WZqh/ALXM+pDnCKAoGDX+qHfLF7DiRn5J6LvLKtElRSDEhSCI4IPuL4IPgiOyPvyOCyPO3KzU/JtAiL9LmD73J22wHTI9jEpjf44dO2YzZ3OfN9xwg7n88svtvrgtgRm3E+bJ7SP3wza4Dhfpr4A8AK6fARh9F4yUCrHnwTifK11UcDRXzoT2Qy2gFlALjGEBgAM/XuE8QvYHmD8I+qETnd0mMZAwtQ3LzeplzUAwYImG+k0IACMDV1Y/wugHKGhmJBeSRQbBNPlqwxbccBFNDgGIvOgyIxDii+CFoEQKvUrEGhke/k13GV8CWugqExeY6IPENSbaJX6m6Joh/VyHbfE3ghuG3D/99NPDuZAuueQSywSJtkmi1th3SfIoWij2U/pHxooME/q/EwDrn1BotlsHl1rgVCyg4OhUrKXrqgXUAmqBWbBAT/9gzdHO7pcCzoSBCkw9gIU53G/WbdpkIohAoyi7sQ6lOnqPgoXJInw/azqOHzNHTxw3SWTJ9oWDpq7GmFDAb0EFwQaBycGDB83+/fstwCEA4m8EFQKOREBdjvayTBG3BdgY1hsRVFHXw+8JdAh8xP1mcysB+Lh5iAQcEUjR7cV+MIyfLBHBETNnU6R98803m0cffdScffbZhiBJNE4ivBbtkTBP3I8wSmS1wER1oN8fRWTcU7NwynSX89wCCo7m+QnU7qsF1AIL3wJIpLgUwOSiWG09Csh6up1wJIQq99tMCfXTBgaT0BSBxenrNMGQH9FqKQCjY6ab9cviMRMLhgCgENafyyJb9BGbX4iAiFFgBEMEFQQdBENSm4xWlRxHPT09wxFj/J7h9wRMBEnUD3E7rkN9EMGKaJkkG7a48UTUzXUIhtz9E1hxe4Tb2+SPBDhPPfWUBUos/QHdkDnzzDMNos7sPl3XmvS5t7fXgiu024O2Po1tvok+ejSZLmqBU7CAgqNTMJauqhZQC6gFZsMCADYRgJE4wQUBzvGjx7woMhSV9QV8AAp+0w93WjY1gOKySTPYM2A6ujuRLbtkapsbUT4kZw4eOGgSfb2mLzlkgQfdUAQVZG6k2j2PjcCFQIUvETeTMSL4IdMjhWMJYMgYMVyfLjLmLuI6BD1SMFayVNuabuivgCPux2Oa4haASS4kfs922Cbbpg6JfdyzZ49hNm2CslWrVtl1ZGF/+SJzRMAHsNeDnElfhKj7k+vWreubjfOl+5z/FlBwNP/PoR6BWkAtsMAtAH1RFKVCInnkMUqjHms6lzK1KA1SQJZsKIxMUyuYpCN7wB5lzUDfoNn3zF4ziFIiTY1Npg9A6dCB/WagvwcV2ODmAvMkgIguMAKNiy66yJx33nnDoIaARMCMhPpLPTQClttvv908+OCDNqSfGa4JohAmb0EKAYpEkdG9xs9si+63UCgCoIbIOUijwxCWhyNZE4UcKoDoOpbCLSLCjiCHfSIrxbxH3I77IFgiSCM7RGDHfQnjRZcb2SSAtB6Aov8655xzPoptOxf4sNDDm0YLKDiaRuNq02oBtYBaYCosUCr5QtlM1ucPIokjGSMUWAswOg3FZgtkk5AAstTfa9Jwr3UcOwEAhfB+nx8upmPWLdXX0wmWySAnUgQsUdyAUbE6HrIwBBbML7Rs2bJh8XWl8Fmi2sjwMGs1or9sVmuKpwmSyOrwJUJoMkQEOAQ0kjjSCqvL+ZWKYIuonQrC3RcOF0YSUhqPXRKGie2RiSKzRRaKbQh7xXbJUDFKjkwT+jgIHdOXNm/e/JFt27Z1TIXdtY3FawEFR4v33OuRqwXUAvPEAqUiKqKlk75wBOH4fnAsfty6WUUW/0WAl4Z6ukypp9f09/VAa0S9ThIurl7TeaLT9MLVhaIaprW92axETqFzzjnPMLfQ+vXrLfCQaDAyQ2RjyCrJdyKmpplEN8R1uD3ZJYKsTRCF33333ebJJ580Bw4csKCIAIrghfmLhHliG1K3TUp8SLFZL7INv6OArkS3STJJskTUIbl6JWmLfSinEkhBY/RtgLx/AYOlwGiejOu53E0FR3P57Gjf1AJqAbUALBAI+BMBvy9fG4/aOmp5AgkApAK0RCCRTDoJvVFy0Jzo7kb4fsJqfw4fOoww/wETi5JdaYWLapM5+5yzzdIlS212atEckZ0hSJEirW4CSCkxwncJ/yeQIXtDsEIBNVxYVp9EN9hdd91lo98omqY2iS4wyXEkKQJEpM13yb5tARHREaLpuC9+JvCRem/cnwi92U/Jn1QuM5LAut9DHqO/BjA6qgNGLTAVFlBwNBVW1DbUAmoBtcA0WiAWCSebmxqTS5YugZYoZZAN0uSLIeQ1YvFZlOpIUIidMl3dfeZIR6dJDSVMMpE0JQCpZUvazfnnn2e2nXsWGJ2NYGeK1v1FEETgIjmE6Lpy66xVHo6UGyE4koUAiJ/J7FCzxIWZrqlLIlhiJBzF38JAiUBbEjWyDxLuzyg8P9gwya/kirdFwyS5jbgN28YygDQAX4HO6B+hMToyjadAm15kFlBwtMhOuB6uWkAtMP8sAD4lEItFi9QMHYCrimLrLEpj+sG+FLJ9Jtl7AhFqXeZoT7fp7Oo1qUFEo6Hu2tZt28xVV11htiIEvrGlCdqdGKLdvMgxAhNhbgg2KJwmm0Q2iItofwSkSMJIEWYT4PBvaYfi7quvvtq2ScaIeqMTJ05YwCUlSti+WzBWgJYVf/s91x0ZI7JEAtrYF2GNJNkk+4L1ToAB+wzcg/8BnZEmeZx/w3pO91jB0Zw+Pdo5tYBaQC1gEJJfjAagsC5Ax9OLcHxmvM4DTcSQ8TqJCK6u44dN97HDAEY9JoekkLHaOnPulk3mxddfZy48/2wraB7K5OA6y1rwIUkeJVRfqtgTrCCnkl1fAIqIsQlcJAN1pctLap/RvcayH9u3b7fAiMySlP3gNtQjSTuSRsBmziZYA9Dy4W/ul9sIGCNwk2SU3IYL+r0DbNVH4L77NnRPAzpG1AJTbQEFR1NtUW1PLaAWUAtMsQWCAX8gFo1CW8OiqojuQukQiHTADkVMLwBPH5I6dneAPYIrDTFgyCp9lnnJDdeZC7adZUJBz1UVtFmx/fibIfWekJlaHiaEJCiiq435ihgSL6Hybjg/gRHZIr7ojqO7rAxU7LvUW2O2a0azdUP/xCgy5kNie/yeWifREQnoEvYqZ0uVRIcTT/J3AiVJ8MjPAEr9AG6/QHLHf4YQ/GGALa2XNsVjTZvzLKDgSEeCWkAtoBaY4xYIFVNRXyCcyoIVSgXqTQk11MJxVKgf7DW16YQJQ4PU1dtjgsWcufY5l5trn/88cxbyDlkXGBifcAT11ACE6FIjAKJgm24vAiNqd8j4MJSfL+qHKHgWDRJZGzJABENklVjig9tQYE1wRcADMbQFQFyX4ImRcMyFxPUlHxG3qatF0kcUxY3Houhblvpr+/IZuvjwfxbILReQdUuPlBM97kTfPwG26JsARhqRNsfH7HzvnoKj+X4Gtf9qAbXAgrdAvL7+RMEXebJzIHVNFlwJ8x0VGbUGINLHCLW+fiu0vgCi6OuvvdasXrVyWFckbiy60MgKUQ+0e/dum/+IjBLBEMXTLM9BkEOgRIAijI2E9ovrjcYmWKJGiQwSARhZHbJEog3ivgiQKM7mugRMBGWWwcJvEsIveiYCIfle3GiiPcI6Kfx2O9IH/D1SBNyPPuYW/AnXA5x1Cyg4mvVToB1QC6gF1AJjWyAQivXlioHDR7vgOgPY8DEZJHICwc+EMiHd0CENgMFpNdc971qzBVmlEfZvWRi3GCtZHmaYZrZpFpwlE0TxNd1dKLdh9UCu1kii09gzKVYrmbNFlM13giTJuE2QJXXVmGCSYIngiEwUs10TeJXD74fX47biWpNotPLnIt6fAqD7JtiizyNM/7COE7XATFlAwdFMWVr3oxZQC6gFJmmBbMGEBtO5aGfvgElAMxRAlmt/icVAfAbJIU0RrqkLzj/fnLftHAuKinC/kYkR1xRBDd1hFEoTGAmTQ9ZIisVyXQIVASsEKgKMCLIIWITxYXvSPkEXXWxkpMgeCYBi9JqwT8xizYSRXCQRJLeXz8ISsV/l6Lfd6Nt3AbC+gG33AsBlJ2k63UwtMCkLKDialNl0I7WAWkAtMHMW6B8cauocTJ+bAnhgyHuIYe+oQ0ZxtR+inea2ZnPllVeaxtp61C4bstmmJVyf7A4BDN1oBEbUG4nbjOtIUkZhhwS82CgyvCSkX8LsuS2ZIOqJuK2E6pOV4ncEW3ShsR2KvMkckZ2SqDVJ8EhAJC6/MpuUQrv7sP3NYLG+BhZqF1x9NpmRLmqBmbaAgqOZtrjuTy2gFlALnKIFUomhcH/PYFsRmp2aCDJHgzPKINdREcCjvjZq6jauMWvWrwRYSpggUmYX6XLDQkBC99nhw4dtaQ9qhCigJkChy4uLlPeQSDR+LwDJZY+4LoEQ2xSg42a5Fh2ShOtT7M31yU6x3IiALdlnOS1AEgBqH17b4XK7FczTL8EWHcI7yuvqohaYPQsoOJo92+ue1QJqAbXAhCxQE488HYumv1hfG6+JBsOrc9lC4yBD6aNhs2bVCtPUHDOhMEBRBm4xVL0v4Z9XrwxFacHu0O3Fv6kDktxG1P+Ia4sASQrEkhXitpK4sRxCb7cXUTbBEdej3kjKfUhBWK7H78kiUQDOCDi61Lgt+pIB+OrD6zheu1Hb7YcAT7cBUHUAQHm5AXRRC8wBCyg4mgMnQbugFlALqAXGskBbS1u+s3fwc7Ha7ANJn//c1EDi3Hg2fUEuUgyYFXX9bW314UIu/3yCFjJAkmCRbA7BEYEMo9FYaPbIkSN2HYIYgiCCIvlMRkkE0yLoZr+EaRI9EdklgiuyUmSjpC2G66OtJNp4CuzP/i1btuRR2mMvXGX4KREFQ3QAgOkp9OMw+tqNPikg0qE/Jy2g4GhOnhbtlFpALaAWONkCbU119JU9VH7BTbZ/SanYWAM26NjA4OCGnTt3fidTzG2ijJqMEEEPQQtBDELg7XcUTbth+JKQkesKUJKSHm60GnsikW+iV+J3BEkEX9ymLNIugEH6H4CfT7/2ta/dCYCFpN7ZMLbJAzAV0YeSnle1wHywgIKj+XCWtI9qAbWAWqDCAmvWrD0hX0FkfQzA48F8Or2J6IOsj7jByBoRxIjrTMLpxe0momi6xaReGgGPlAjhPkSUTYAlkWXCIkmZD64HdugE9vd1RJg9BbZJKtSqfkhH77yzAGIedFELqAXUAmqB+WwBaHa64a66E+xMxmV86CIjOGIoPSPIGD1G1xrfpX4Z1xExNt8lnJ+gSVxsApDoXhNBNt8lcaPsE6BqCO13QWckwGg+m1X7vogtoOBoEZ98PXS1gFpg4VgAup47weIcJmBxw+/J7BAMESTJS4rKEuxwkYg1AiMBSF6+JA8gySIZraXmmeQ7EtE2wFEUDFTNwrGqHslitYCCo8V65vW41QJqgQVlAQCf/dD23CH1zYTtkfB7AhqCJLrV3MKyXM8tKivMUSWDxPUkqaQkg+S7ZLcmQIJbrWXPnj0XQNvkoS5d1ALz1AIKjubpidNuqwXUAmoB1wJwqw2g7tj/AKTsZAQZRdYEPQJoCGLIHAmLJAVh2QbZImqOJHJNQvld15qwURK5Vi4GO1xYlkAJ29WgPMn13d3djXp21ALz2QIKjubz2dO+qwXUAmoBxwLIGXQ3kjx+AkDlsNQ/c/MVSXZrcYuJC05E2ZItW8CRWwfNra8mzJO41YRBYrsoU7IeIf71emLUAvPZAgqO5vPZ076rBdQCagHHAgA/OZTd+CIYpA8BuBwh2GHoviRqrBZtJlmwXb2RmwTSNbBojtwSIPzbLTUC9qntxIkTS/TEqAXmswU0lH8+nz3tu1pALaAWqLAAotIG4SL7PACRDyzOHyE79gZmrKZLjUCG7BFf4lYTMbVolSSkv9K1JiCKu+M23J4MEtsU0FR+b0fOpaux2r16ctQC89UCCo7m65nTfqsF1AJqgVEsANCSAiD6b4ivj6KMx7vBHp0N1qiBoIjgR/RC4hYjw8TFda9JtJq8CwByWShhovhOwESwhCWEIrRXHDt2rBUh/V16ktQC89ECCo7m41nTPqsF1AJqgXEsAOH1EKLHbgJA2g3W6DoAof+HTZZJpBmBDMGR5CiiKFsE2aI9EkG2JJUkAJLoNG4rbfA70S/xe4CjLTt27FiB/Sk40pE6Ly2g4GhenjbttFpALaAWGN8CAEY5rPUYwM0hMD5c/hggZimZIykDUi4Ia3VJbq01KQsigm7uTXIeSSkRKUQrgEnquCFabcUjjzxyKfc9fi91DbXA3LOACrLn3jnRHqkF1AJqgSm1AMBMD4DPN9DoNwFkMqIXkizXohsSt5rLILnuNRcguWVEJFO2MEhYr/bo0aNXo6xJfEoPRBtTC8yQBRQczZChdTdqAbWAWmA2LQDgchjMz01wox2VaDPRCgnokcSPkgbAzZZdyRyJW83Nli013Ng+2tjyzDPPaNTabJ503fekLaDgaNKm0w3VAmoBtcD8sQAASwnA6AmwSA+JO0wYH7rJqD2qzHdEkCRuNdelJgyRtCPCbilHwnYBrDbcdddd588fC2lP1QIjFlBwpKNBLaAWUAssEgsA4AzgUO8FwzNEzZFbPJYAiYsAJLcILRklLpXh/MIeSRJIcbURJKGdxgMHDrwU7jV1rS2S8bWQDlPB0UI6m3osagG1gFpgDAsAxCQBkB4GEOqVSDNhfdxkkBKt5oqy3SK0ZJG4vkS+sQ1hn4RV4jvSCZx5+PDhNj0paoH5ZgEFR/PtjGl/1QJqAbXAaVgAoGYfgMxht0aaaI8IeiqBkQAkNymksEgSpSa6I2lTABJyKq3YvXt3+2l0VzdVC8yKBRQczYrZdadqAbWAWmDWLNAPcPS0hPNLSH+lW40Ra24h2kpwJOH8LjBiUVsyUgRZZT1SO5JBnjtrR6o7VgtM0gIKjiZpON1MLaAWUAvMRwsAuCTBHj0OcJOWTNlu1BrdZ1Jnjbqjaq41utQkY7ab64h/iyi7DJ7CHR0dzzt+/HjNfLSV9nnxWkCTQC7ec69HrhYY1QI33XRTPTIcxzF55i699NLMVVddNaTmWhgWABDKAADtAohJ4e+oACTJdcSjlDprbr4jskH8XsCPuNbcEiL8jp9Zx43bcgE42oZaa9QdJRaGBfUoFoMFFBwthrOsx6gWmIAF9u3b13LrrbduuOOOO17zuc99bgsqu8dRtNT/s5/9rPcP/uAPbnvTm970w8suu2z3BJrSVea4BcD6HAfISbvARiLOhCmSciKu5kjC+eXwXNeagCy61ehew9ixrjW8rwTQ3oht9s9xs2j31ALDFlBwpINBLbDILYAyD2t/8IMfXP+nf/qnr8BEdsaKFSuWvehFL4q2t7db7QhAk3n44Yef93d/93e//v73v/8nr3rVq75x/vnnb1/kZpvvhz8AgJQhuJF6afK3MEeSEFK0RhwL8pKDp2tNEkpKWD/bEWE39Ux4NSOc/0Zky76jubk5M98Np/1fHBbwLY7D1KNUC6gFxAJ79+5tAzu0Gq6OF9TV1Z2ByexMiGa31NbWNq1Zs8ZgArN6knKWY/v0j8ruBtsZTHBprL8T7MAOTHq3v+Utb/np+vXrD6h155cFAHjW4jzehGiys+H2MtAEmd7eXnueU6mUBTdkgurr601TU5NpbGw0DQ0NBrXaRGhtQZW431Bo1mAM2e3ZTmdnp9m/f79Jp9O2PbBSD/3ar/3aK/A6NL8spb1drBZQ5mixnnk97kVlATBCPrg2Vt17770X/fmf//nbTpw4sfXMM89csmrVqignv82bN1sRroAiTnqiGeH3nBTPOeccTnJRAKTznnjiifPAOL0YrNIrP/7xj3/61a9+9b3Lli07saiMOo8PFuc3h3PNqLXhXEWSLVuYIxFmS2i/G63G3zhWCKKkDW4v+Y/oWgPYtp8JkACY1m7fvv0MtK3gaB6Pm8XUdQVHi+ls67EuKgsAAC196KGHluKJfvmXv/zlyx5//PHr8femM844o/mlL32prcrOiU+yJEtVdikXQeaIE5+4V0SMy0nv4osvNmeddVYjNEo3sEREIpG48z/+4z9+CoB0z0te8pKdEOSyGrwuc9QCOJd0qXUQ4EhIP9/lnEuxWTdqTSLXuE6le43fcRxRiD00NDQMuMTlhveWrq6u6/r6+n4BFqo0R82i3VILDFtAwZEOBrXAArPAfffdt+3b3/72S97+9rc/H0/t68AOtYL1aXzBC15gj9QtAUGXmQhvCYQ4QXJCJGskwIh/SxZlgiluz0mQyxve8AayAu2YEF8JZuD6X/ziF4d//vOf3/7Vr371C694xSsexXqqMZmD4wvgJg0AdBjnsoBzHiBQdsGRsEcyNvgu5URc7ZEwRQKCOC7ckiRsh2OHzCPGzvl79uxpwVddc9Ak2iW1wEkWUHCkA0ItMM8tcPDgwVYAlLZDhw4tBYvz+r/927+9HBPSBrjK4lu3bjUQWFuGSJ78JSRbmCIR0koldnGT0CycNEV7JAySgCuuDybATnxc75prrqmldunOO+/cAqbq+XC9/QzM1RdWr169r62trWeem3mhdT+FA9qNc5mAO6xeSolIxmspQstzXs2t5katiWuN44h/073G8UCGkRokutXYDsboGrhhmxUcLbShtDCPR8HRwjyvelSLwAKPPfbY5ttvv33b7/3e7/0GJqZ1AEIty7GcffbZdmISlxnKN5i7777bTlCXX3652bRpkxXSkhHiRMa/KZrl+pzghDXgb5zcuDA0m59louMkKLlsRJTLCXbDhg0GrjWGb2+EKHfjZz7zmevh3tv1gQ984HuIcrtl27Zt+xbBqZnzhwjwUgBY3oGO9gEM17sh/RwDHBuVmiMXJAk4EubIBdSSFFIK20rCSKy7FGOBIf275ryBtIOL3gIKjhb9EFADzBcLwHUVRl/r4L7a+L3vfe+1f/zHf3wNJrG1F154YQtBCSPNZEIj2CEoevTRRw3WN9AEWfDz9NNPW4B00UUX2QgkyYyMAqEWGHFCI4hCFJNti6CICz9zHdGksC1OiARhZI/okuHCqCVuhyg409raarZs2bLxnnvu2Qjx9hUPPvjg9k9+8pOfefGLX3zH2rVrD84Xuy/gfhKoHsN5XC3soWS45nkWN5owilJORFyvHDsCfETIT4DM9TlWOD6EkeI72qxHVNyNGIO/gu4tuYDtqoe2ACygofwL4CTqISxcCwCo+MEQbUIixksQev8iuKeWAtSsBKOzHgAkgIgzC3IogiXweeaZZywoIkjhQqaHIIVghaAFLjiDp3fT0tJiNm7cSFG1AZtjw/c5qZXDrocZJWGXJDKJk6dMlpzwOIGSPWCYN/fJ9bgvMk6iYWE/CLjQfwKpPkyqj2O7+7Hfr19//fVPgezSzMmzMIRxDpoBWD6Oc/NGjhOG31eG9PN8EjDz/EpIPwExX6I7ExccATgiGe2YY1sM6e/u7jaHDx+2f5fduo8hnP9GsIia/mEWzrnucuIWUOZo4rbSNdUCM2YBTDQ1YFy2vu9973sVtDvXAZBsAAvTQA0RwRAnLE5KnIxuu+02c//991tgxEmIwIdMElkfAhQCHAIiRAtZBmnp0qV2coM41jJLSOhobrjhBss8UT9EoOUm95OD5ncERlzYruhL+FmYJ/5NgEUQJe42CfEmEMOE2oi8OldDG3XV5z//+Zffcsstt998882fes5znvMIJuDijBlYd8Tzl8DY2AmAlMF4inBMCZMoDCHPMUENmUOOIzecn39zPZ5njgspGyIAW8YSv+fCd7SxHGNxJT4qONIxOKctoOBoTp8e7dxisgCeslsAdloAhlYDFP0mxKuXAkxsQNi8jzmGyO6QneFExKdxAhuyMQQ5BD2ISjNwVwwzNizfQKCD7MQWvFALxHxGK1eutACLwOrJJ5+0oIpP+CgNYt1tBFWc8LiNlJSYzHmQwqSSLJCTJidYAjOwB/5LLrlkIyLrNv77v//7Vd/5znd++sMf/vBzcPntxHFqGoDJGPwUtwHAzeCcPAwA1IdztUQizgQgCVsown3RHEmYP995bl3XmoBqAVcEyVJWpOyKbQF5+BwApLtRnkZD+k/xnOnqM2cBdavNnK11T2qBZ1kA0V21cIdt+dGPfvRCaIOuhktqKRiiVrwvozuM7gy6LwhekKfIIImjQVSa1XIwezEnMq7HiYfrEfDwd05ofHIni4RoMfubhOPzb7o+uPA7bnPkyBHLLBHAYP+GeZDYLteTvEeTOX2SLFCKlYqORQTAZB8I4rDvAsDg0+jLDgC8m2+88cbbL7jggv2T2aduM3EL4Pxuxbn5Fl5nUjtGtxpZRv5NYO2mbiCg5njimCTA5fgS3ZEAKG5DAM8XATuZTAJ5tsmxxd8xtm+B7uxNSC3RMfGe6ppqgZm1gDJHM2tv3ZtawFrgwIEDy8CanPHXf/3XvwtwdAHYkjVXX311FEJly9zIZMNJBsDJAiMBRdAd2QmK2h66Qghu+GL5BoIZMkhkiDiR8XepmUXWRmpeiZaIkx/bI6tEPRKj2ijgpmibIKqyCvupnD6yCARxbiQcwZhoVNgWWQUeL/obgFtvK7J4bwVz9gJE4e34p3/6p08hV9Jt0FUdO5X96roTtwBAUQ/Ox2FscWalKFtSNojIX9xrkhJCRPkCfLlXqdMm4JfnX3Io0TXHdaFH27Rr164lWF3B0cRPla45wxZQcDTDBtfdLV4LIP/PJkSZvQAA5cKvfe1r61B76gxMPCtf85rXWL2PPIWTxXnqqacMQIIVtvIpnkAHNczsRMO/yfLwd3Fb8Du+6HojOOLERqDECQlAzLrI1q1bZ4EQJzfRBPFJnp85aZFh4vqILLP7pFCb24nO6FTPHIEY25PjEr2KiHwlnYAIu9mnK6+80iAVQTMA2nMA+M743Oc+99gf/uEfPga34jeuvfbapwAeh061H7r+6BbAuaA9d+N1HceAuMB4LsRlJnmxBBTJu3s+JTEktxGGUtx0PL9sV9ys2J5Z26/CPrV4sQ7OOWsBBUdz9tRoxxaCBaD3iSHSbBMyR78DyRkvRcTPOoCcRkb+nHfeecP5htw6Zj/4wQ8MmBPr1iJoopCZkw/ZIeqHqDPiRNPe3m4Q6WXzFhGAcLLixER3BlkmFhSlO44vAhG6NugyY1JIYXUkrxFtLWCKgIZtSAHSyZ4Hd8IUtkgmWrYvzJGkCOBngjKue+mll1Kf1I7P15FJ+sY3vvEKMGh3fOELX/hX6JV2QVTuKcN1OS0L4Hwk8XoCjQzA7vXCHkmdNYlGlCSikilb9EeiT5K8RwREsq2wR2QGXbE39hEBe3QN2KMvgjHUSMXTOoO68XRZQMHRdFlW2120FoBQegncQy0AK2cgU/Sr4Kq6AhPEyuc+97mhc88917qaGOou4fYENZw8CGDgajPQ3lhQxMg0fkeQQ1DECYgTDZkhvhiKzydyAgq61AhmCDq4vuhD+BsZIeqTCJhYKZ2RbJy4uC6BCMEQtSF8yfqMaBPh7WRPpJQjkQmV+5IJU9x7/I7HJJOv5NmR5JMQ7TK6zg97bEBE3gaUJjkfrNmXAZJ+AHfbEbj/lEma7AnCdrB3EaD4SYCafuYh4ngSpofnj4u4eOU8uqVEZIzIuuJWE1eu5M6ShJAS1Yh9bsI4b0fzmhT0NM6fbjp9FlBwNH221ZYXkQUQ9RUE+NgMd9lb3/3ud18J8LIMjE47JvXYG9/4xuEnZ4qPOUFQz0NQIpmmCRoQ3m6+9a1vWdcX2SBOQmSLGE1Glxjdam5+GbrE2B6j1gi0OAFxPYTFs5SHBTcAERZsEZRx4iOLRJccmSv+TQEuXxLtRsaG+ya7JCyPaE9O9XSKW43bu1ojHrdMpgRFBIdcZB0RAdMmBGtshxoqsl4ATefieM5CZNvbEOV215/92Z/9w4c+9CGdYE/15Djr4/wcwsdOgKNVwvpIGZFqAEnOWaVQ341ak+3ZnhSk5fgTtxvG2woA/uUKjk7jxOmm02oBBUfTal5tfCFbAICoBuCkATf5lR/5yEf+CPqg8xDBsw6JDWOczKXqvWhrCHakmKvoeAQ4EAD99Kc/tYCG7jQCBrq5mNiRrjO64NieuLtcpogTEaK7rOaI4Ii6Iy5kggiCyBhRbE0gxYXbUstEhontkZ1BZJjVGBGYsU8ioh4PGIk7Zaz1RLArIEi0LOyL/M3jlrbke/5GEElbUYfF/nM/sGMQ/Txj7969y+64445urP+nC3mcTfex4bwMwMYdUiJGmCPRDtH+cn4IbPniWJbv5LzxfMnfkgJC3LeSc8vJn9QOt9orcQ3dB4ZUXaTTfZK1/VO2gIKjUzaZbrCYLYCosTq8ViPx4pve8573XAjg0g4gtAyJFJcwtJlRZJxcBNxwsuCEIMn0+BtfwhoR8JAd+fGPf2wnf+qLOJEQGDFqjGCFtdK4cBvug4AJwMAgFNqCH4InRpvJJMb2OFHRlXbdddfZ3EUUWZOZ4j7YH7rsEB1nt+VEJtmsqX0SnYmwBhM53y6wcdfnvmgLdwJ1J1HJgSTfib048dIGZMcI7mgLsmhktZi0ksJtROuxHMXqb3/723Ecv5ajmMiJqr7OEMbOPok+E1G26IlkE3GhuTXWeG4rx4nLOgkYkjFGsFtOEukDQL8cObraiNcn33XdUi0wPRZQcDQ9dtVWF5gFfvnLX64CKLoADNFbwbhsBQhaedVVV0Wp35F8L5w8CGColxH3hJTaEA0G36VGFUEQn6wffvhhCwDoNiPY4UJXF5/cmdSRgIuAhQsnFrJAFGODoRoGMvxemBmJCmJ/pOwDdUdsi6Js6plEryQMgFRfrwQx4+U4EsZoNHAkrhYRZ4vLTMAQ9yuAUcAd38lqUXhOlyA/087QbFn70N4EfuXcTDVoI7DAhtuMHg7GYQpu2e041ymMuZicD4IkAUgSmcZ3jhkZw8KGuoBXxp+wRyLy5njnejyf/A7brsF4XKHgaEZPt+5sghZY1OBof38pVCwVzfrGgJ15jvUlfQV/JFoK8ArOMnsrFYlMlCnvXI3fF33GB05gOMEr/+BHlj8olny+YrFkCmsbw5oBdoIDca6tBqYiBoZmCZiWVZjYL/+///u/1+BJdwNcV02vfOUrDfMR8SZP/RAZDhEbSzkFEbHye3ErlV1CFsRIXSqW/QDwsloiusM42XDSJ1giu0PmSHINcbKhtoi/E9xwoiETxEmMDAvfZSISIMV3fsd9UrND9xkXutMI5CSKjN+5mhFXMD2Wy2w8t5sANrcchQAu0aDQfjwmJgvk3zxOgjj+Tfck2SIyY+UJ1dqDfefvmKRD6INeZ6d5AcGGz8Cu/RhTMWF5CJJc9kjGtABpKSciwNftgrBH8k6GVKLWeM1wnKP9Nrh4r8V2D55m93VztcCUW2BegKN93bnIQCbXPJRJtydyuXXZQnFF0edr8Pt8IQASlgMngOENkk+QUX/JxNK+QmTIX8zlQ/5EQ8DftSxb6qjJFNL9fl9zVyy0JjoUanr0UP/KVKBU842nOzrivnTHjuO94VKxdlWuFG8uBfupZaB9+BJwxP0QAFFByncPFHmfC7hJ0HeewacsoNPgT3ac6Ar4zfGg398ZDgWOxGKR45FwsOOslkjPlJ9JbXBKLADX01LoIM762Mc+9g7cuM8C49IMLU77FVdcYW/ufPHGTs2OsEMCLMTFIGH1Ul5BABN/J5ggKCA4Yv6hW2+91QIelgfhwgmfIIH6IUakSaFXtiURXdyeJUA4ycgioleJJJK+yRO95BriNpUh9pX5bCSrtfv9aMZ1J0b+LWDJfRdGSCLR+Ju4Gal/Yk4nvrPvjJKja5Ev7p/25na0i7gEhX0o290P+yo4Os3Rj/NxCICzG2NrqeQ7cvMViVZOgJFkOpdzK8DaHTvClkp7PJcc90xeSjBPYIuHgOejvt4XkcPq6Gkegm6uFphSC8xJcLRnIB1NZwrtPb3mnFwxf9aTR/svTuWz6zOlUlPB56sBs1ODu3AEHA3EHLQH/le+PeK2a0qgbTD9mHh+KB9P7+6rGziUCPb0hlKJZCBQ4wssbzGRodqt4Wx8RSQXaTV49jaJot/U+IqmkE+ZDBgBX3RsO/ssNjp5sUwS/vOVfMaPiQJ/4DNIpFIRtRpKyYA/2RcMBI//aMeRW2sigUfqamr2NMXDh9c1RHqn9KxqYxO2AELuo4jaamBB1Mcee+wSgiKAFZAVm1pR4sC6r4R54cQgbAtv+AIA5OlYnqRdUCERXwKUZMJgO5LRmpFhdBNxwqHLjK4w6mroPhKdhxSaZaSZuDXYH64jfaqMIqoAERZsiIhWJjO2IQVEXaG0AL7R3GVi4EpwJNu5jJKAIvaPQJCaKB4D3Y9SF47MELVVBH1cXzRZ7BsBnQh7BSQSIPJvtOPHuxdzrsukLYBz3wHX7AHY8yyOA2GPeC744tgWIOSG9Mt3rjhb3Gqu3kjAOzsoYKnscl6PhwRGrSk4mvTZ0w2nwwJzBhzt703Fe5L5dd3J3HMfOzRwTSZf3JIr+JYBXrQSdABuAGwEDNgiAA+v2GEJFBHRiCXV8eIdksAoj4u7IZgyTV2PBOMPfqc1uPPh1kSvzyTzqEWFSa2xmDThN20xsbVXmGDkStNXWm0BTTCYxY0AlaeBZQKlphGnGdvlPsAbkTryaKrKAAvvW7seOoLYG8Fs6GUxDogUzxSKrYVMfmNP1n9VIOMz0cHE0XhwcPvPnjp+Z1M8eGtzXfzpDc1xMla6TLMFIKheBZboOR/+8IdfgYl4FaK86sDWrEYYfC0BB11cnIDLrpthgMRucfJw2SDRYQhb44bAuwyKPH3zd7bNyUHcafybwIiAgWH3BEtSA02YE0af7d6920ahcV1xLwmoYRviwhMwxr5xXwJi3IlLIubcRJCuRkiYrvHcasIEybYyuYq+iu0Q1FFIzqg89o0aImqfmHKAEydtTgDIfgoYEnG2606TfUnfypOygqPTvF5g435cBw/hnN0AGwdoc3HTug8CIsZ2cx2JHsmNOJQxKW5lCekn8Cc4lkhO/N4OpnQruq+utdM8h7r51FpgVsHR/r58JJnNt/cl0mc/dXTgVYOZ3OWpglmV9/lrS3x6gU8K2h4TsKCE/7CAsPEBAPlKCIsG02NKeLoG/Cj5UyCSEDkBkBMpBkwoe48pHPmBGdz5hAkcSGCdkImgvWKv3/RhAoo+8LCJAuDUbl5nBoItmKhQ8wlskwmnALyyaKdogn4v0iYahCsk6P2dKZRMzpJGZU+efStLjspsEe79+I6eNg/E+f3Unfj5yQK4YiBowVMqn1+ezOSX9xcLN3QP+d9W059/9OdP996xpiFwUywaOrKqMaYROFM03hGtVYOm4oh4aoXO56UoS/FK3Og3Ioy9hUJogiGpVSZiUwl9lwSNEpXjuhKECRIdjRvpJetzkndZGx6SsE3C2nB7Ah72gxFk/J37l7xIjNRiXiIuEILbsHv2i+4J151lRybGnIA4TnBcBEwIeOIxCCskrhDRH8lnAU2yrhyP/C5ReAK8BBxyX+wv+8ZtKKrmsbEdHhvTDdBlyIlS7EKmiKJymYilv3Js7Iu44thPAkfZ33i6pykaQgu6GYylIoD57Ti3vwNbW9easEYyxl1gWinKJsCV8yA6M1evJC46gn6J1uQ+cN7rMK6vBOj/P+jovKgDXdQCc8ACswKO9vcmGruHUhseOjz0rmyxcEmhkF+ZLxTqyd5AzAwg4oEK0ECeiURRwO+sPJowA+CokMMqDfgOieSCGVPkUzLWDUL603DkPhN64kGTONpg0vm1xhfpNvUAQ/5A1KSXBUz+Ueg/mp4xwbWHTSC+GjKherTZZAo5mCQYxd9YF/sPB4omVkBl8iSyCbMvkVp0J2JyZK/KrjVvkpFXEQCI/ZeHWXwPMEcAZUEejq1QylogRwBYhPi0VAqbZMmsGUqaNaVE9sbDXUO/Wx+PPvSr3T2/aqsN/bwpGti/vDGuuopTvGCgC/LDVXYGgNHlH/3oR18N4NEKTUsjxMhrELkVpqiaN2su4q4RQMTveHPnIgyLHYr2XHvskftZuibsifubTBrChMj+ODlIkkMKr8mecNIny0L2hOH63IZ5iOh6u/DCC20OJH4WYOTuT/RFlZOUgLPK/rrbSp/k+AQoVeqRXHaI27AfZNeEZaCwmmH3jLbjJEjgyXdqqniM7D+3IQAVhojtCMMgdnQZMJfNkv4QTJUnYXiwcePQ5bQtAACzC+flMHVHrltNQI6MLwGpPAfibhNGSerkCXMpIm45xwRJBMUEzpLmAedxI67VFqxz/LQPQhtQC0yRBWYMHB0eyDV0DGU3He0eeP59+/uvAvTYVihk10nEl51qCB6s5LnMxOBDtadCaHgAorgF2B4/I26gEQJb5C+GoMhG9t3QoCkO9JrC4ZwJA3HEY30mGwAYybYCTEFMBECVh6Apf7zP5IeeNKG6C8DmtAG09ENzFDLBcBDtINQ0g0zGQWgyhrpMdrAHLrgofgcoiwCQBUhEVC4EdGXttnO7HtZtWE8bnGwEgdB5e/Ms/1fEoQM8gWHiUvCFNvdn8puHMv03Hu8pPVUX9t9y956O21rqanbGI4HDqxqi+oQ1zgXw3e9+dwMyKL8W4Oh1YITWw4VTR1aGwIJiZ97oOTmXc66cJCQeT2dzqteeTBQi1JZoNfaDgIGRaQRlnDA4yRAwceLhb3SxUZxMoTKZLZmY+OTOa4NtjhduP1p/BQC54ElchvxNRLfC3shvLoChi0/E0gRGLE9CuxLM0XXGFAISGi59FwBaqXE6FbsqW3Qq1prYuhhHPRibz+B1kbjBhD0S3RHHJccbz6m9V+GBVHJjiTZPQJREWXIdnnsCf24nEZWMmCyzj2swbqg7UnA0sVOla82ABaYdHD2693Db0Z7EDffvPfHKVDFySbYUXp7OF3wBuJaCBi4sHCQj5wNlV4B4qeg6A96xAfMeYjr5b4KQAsCEHyyRHyxSgKCkGANIgkssNIBJBqLPBC7EQrMJRLsAOPIml4amCFH7xXDGhPJR48+A9i/uM4FCCq1jkgn1mmK2CcCI7A6F3RCQnjhmIulOs3lVu0nDU7Yd7oFA0woTbgGDZIktYYzkbJ38EOtOtMN/Qz/qrTXCNtlDLDNlxWDEgijkpY3ni7kLh1L5C0+k+t8Z6Bo4EA34brt/14FPXLJ5zVMzMD7m5S5+8pOfrP7Lv/zLT2Byvxz1txqY7JATNSd7qT8mbAQZD7l5T9eEy/MuuV3EjURAQcDzspe9zLqdGLpO1xMBEEXJBHF8J8iwYx8DhKCD7Uj+GIleE5blVE+WgKJKjZTkVBLmTOwikx2PgbXeyGwhy7EFQNROsX90lzGfEgXWAgrZHoEfF7YpLrKpBqGnevy6/skWAHM5BNZyO8DO63CO/JIMUlhBF/TwnApzJLmyOE4IlFy3LgERP0uKBo4TsrUcK5J+AuN4BR5irkdwxKN4EHh2pIueKLXALFhgWsHR4we71j6+78jfporBG0vhQmPBh9wWUQAWOLFQZhPgBunmT5I9e3iBgEiEz5WgaBgsgTnitiW4p3wASIzq95eCeAFRAWTkawdNrg4X8HEEtaXA+ISKJgSWKWjgIsMEk49QX8TMxUiex3T4vgK8aWgnGLLMVRFgKhoJm4FM2uQH+qA/age4yphBMFJNTcvK/a70dI3O7nsTQRnkld/FX+j58nFP8Hv3hVIhY12HFJ/DD2h5pUwhX1vIF84ayuTOSvV0rHjgmaPvv3jTclbT1qXCAmBiViDK7HwCI7IyDz30kAVAnLjpuhKGhhO1JCWcLmDErok2h5OJPImX87zYfEV0PfEpmukBOHkQIHE9YXY4sfCJW7QfArbYNtebLHMkjFC1Y+d33J+AR3E7Mv0AI8yYbkAYIkb0UVwtbIL0XaL7xEVjxzauA+mvaFhOcwBXPp2cZnOLe3Ocn50Yp304782VrjUZb3znuZVgBTmffGe4PheJ3BTAxEADbsOHEyk/IuwnxlkUGrUr8WIhWmWPFvcQnDNHP23gqKu7N/Kj7Qff3ZksvrGprSHk9yM6JwdwglB5Xx4aBdwkUyHvQkKs+4hbg8Jr614bARqe98lbR/7mSoRQ/EfJAYFSwc88MuCR8jUmtASvzVmTONFjUokcpNYR08BSBogSS6bCZrANYKkNhRBD7dAZIUomhNYg2vahjXwO7QQB3rDPutY2ky2lzcHOQYNUAqamsc1EauoR0Vb5gDMeMBrRq4xgo5H7une41FwVTRRpW/hu3YeUU+AdyVwgKgcg9CMRYDJ849MHjh19cu/RD2xdv/zEnBlNc6QjuAnH4JKqZ9kMuq6Qt8iATbJJFQGYrOaFN3GCFoaWi6ZiOpkMV7sjZhJRK/vB/hC8EWCUQ5yHQYSbpVjAloT4i3B5Mqbn9STbcx8iJpfkf/xM/RPXoSuMkXJ0m3E76rUorKbAWkL1RZjNvnEbHodEJQkbJYydTKiTZb2c41Ut3mRO/ijbYJw+g/PWjfPTXCnK5meCG547cedKpJq8EzBxHT6AEDzzRdcrwZFEuPGa4+/CRJbdrRuR2oI0qYKjKTyf2tTkLTBt4Oh4z8CmjoHUS/y1rUQcSDidAGNEpQ2YHUZ+EewQX5SB0LBotawzstxRESBlGEkI7+IdLBkjtlukhgix/CWTBctCBgiMS67JJOJnm9imo8Z/ApqIvaz8TR85wBLE0KkI1jmn3hQ31IAt2gb3XTPAB+6x+bjJlxDZVmCEXBHRZEVTX9tq4qGI6RvshRYJYsLGGpMPgXWynWdHKkARP9uvyGqN3Lfdv33DQvMym2Rdhx44wp5x3EgTQNLIpi/ANwBEtAcj3JjRJVDbYo4f3feyQ1H/zdjoR5M//QtzS9y4w7hJ+zkxM18QJ3DqYfg0y4zUvFlLja7GxkZ7M59OYCQARELqXYG3uNkELHAycZkV/i5P2HaElBMoSn8lpcBkz6REh8mER2DEv8kQsXwHwRDde3SdEWhSTEtXH18SYi+ak0qtCY/XzQvlXbfeNTEFoGiyh6zbjWEBnNOjOP+HcJ428XzyGpK6exIdSAAkdf7IcvIa4rhkNCV/IwsqLlWODbbB9bgOf6Mon+Oc2joCJZaKwTWxGm7aq/H3Y2AitRCtjtJZt8C0gaOBZHpNKpNf1dSCEE9M9iWIm0O4SPIADwVkWCz6UOwS+iDqqsu4wL6znEcObi3eRMPIa+T52aqxMl6C6lIBh+BDuHIAmX8RWVZCbkhfocYc811lGlZ2mZZL7jbZ6JDp7ciYngw0J40QBq6pMXXnwlXVFjQZ3zpEngEoFXMQYMfRry4TitTBw1U0AfjLhwCUQuFG429AdXC4A4sARoRsfvTdy6zkLuIMHP1h1nNlCOvkuQ89dqgsPuemAbj2yk14OAq/oWAJ0g5aBi0LsFT0B1tzuQJpaF0qLAAbR3BjDxKU8MV6XLwhE2TQHcRaZg8++KB1YzGKitofTtainZBJ3I2SOh0ju2yJ6HzKYcy2WU46/F76IOBB3F6STI8TzmiAe7z+VbqwpG1xgYmLhLongiJqirgNy3eQ0ZJoOvdYyCbJ8bjCcAFcbgqA4YcfavnKAGk6XZnj2UN/r24BnMd+nDfmHHo+wZGbaV0ALQE0XanUlRH0CCPE9fmgwYcPnnuOKY4ngiAR+AuAFteasExoLw5A/ts33XTTQTCUt8Ld3KvnSC0wmxaYNnDUmYXix18Kh+CSCkELlA1BsAnXWhAaH2ppkhBP+/0QU5dxjzBEyAhjmSB+X6CuyIIJ74nZ3kzLEV8lmxwb3yFxo2VxSgA2SEBEfQ7CyoCylph09CLTvwZsS3Sn8XWdQI5qhOUjZ1G0OW8yzZeZfJiiUYRyhyDMNnFMpHBf+fCEA34rD+0R4QjZmgz26Q/ErJuryKpq7AuOZVhGZPtUXgTU0EVW/tZqo076G8fISUK28T4Oc2R5gEKWiyrkULMrD30WQBr0RiaTzSPiI25qEkOmOxyK9Bv/0tkcPHN13zg/AYybAG/aEkHDmzDPG11BvKlTN0NwxMSErFbPmz0rvVMsyqdZPi3LTZ9PvsL+8EmYi7i/bB4sgn5MBrJUTvrVtDVuqLOFv2VGSNxvLpgQBkaihCQEmp/5BC512sStxXcBKyIE50RFW4huSTJrM0s3EzNSEM5jp+aJ7TFbNXVEZIvcfEYC0Fx2S/oq16iwYQL8+O7qolz7uMcpoNS1YzUAVbk9PqtrbYouRrh3CxgTLEI7AJawnuNchNk8r4z4JFjmAwXPKYGPuFF5Td133332upLrhOOOLjTX/eteD6Jl4zZY76x77rnnw7gef/TpT3/62y984QsfwPU6OEWHps2oBU7JAtMGjtKFQrgEhFPKI+08maMgQAfcaRHkJgphr4U8buC2FJkHCsiM8C8mTJQlwMRAZTDk3XjLJBLZJ6xfAFjx+VGZw2vBAhfmDyoAdPl8jbggn2OS4bNMYMlu5DTabYKFPrQPVghutETsXOQYajI+6p4A3PxknOiywv+YGiCM3EMEQyHqu727NvQ+lufhrd6Loisvrqi8JPdp/GyzZNtlBByJG9HxFnpP0g455kdSy6B1FcJtSKE4+gMVB44NQnIwVnQQ0lxIYlB3Smd7kayMsYLSezhD5fw3tK+4i6RQKxkRRrDRFYBIGfsiUDjvvPOsy40aILoAJFSZbRBcEFSUNRLDiRw5EUjeo/FM7LrFhgG/jBJHe+cyRJxAuK4kdCTQ48JjkgSV9joqRwVJX8WNJ0JZgh7+xmN+4oknbKQZNUVshxMeheFk2CTkWiYuSernHlvl8Vb2l+u664zFEp2uS5Pnezy76++nZIFduE56wQrVExiTHaLriy5VavY4XsgO8frgGHrggQfstUOgzuSfAvwFjLsAmGBJWEv2SNgoXpflSNK1P/jBD37/V7/61bVgd2+64447Pous9c+cUu91ZbXAFFhg2sCRN7ejeYTsIzm0iRIR5VJmsOswQAqiFvxNcGchKourWdTjsSeeCNmj3v0AUywHIuCBF5l/OLkiJUcOogBgorC7jGRMNt+I7QB4mAvJtxygAjlirIsOCR4DmPgyNRaIMYIt5ENmXjjNfD6UDYFrjuAokPPyeHh+L+/d4rcyjqFuaPiGb3+vdP2d/DDrYCmWW/P6MswynXwmc2AhvKzaAIBgP1gOJVbfYuJ1jXY/zL1d7lo1f+MUDIt538SzmASZgIU54RHy5i11zRh+jmSR5vHHH7cTAXUUBEl0yZFJ4nZuVmkJWSYAOZ1cQxOxtETUsQ/iKpT+CCMj4meCNxHFcuKRp34eE12J/I3bcnLjO8EgxdUERTwOuju4uHXiJtLHya5zusCofIVOdve6XRUL4MGANdYO4ac1vMdxzJFxJbPIzwTWAC2WdWU0KAGRMJQE1gTsXIQxIqgiA8mxSGZS7u9ch20TVBGwc0xy3HE7uL83f/WrX/1DsFHnI5v93/3O7/zO7Xqy1AIzaYFpA0eY+QvpTNZk4OqKRyHAzqbN3me2myd+9W0kVexHriEkRAWr5CEEhvfyxQgXL8qFf2eZPKwc+cL3YXFS2SU1rPix7rayu6sc0RaEUJtuu3wIiR3BxORRZqQEVx4db8aHnCuBWjjP8DQOkBOl8JtfsxkAOh/LhriFZcsgjDcGAiS6AOl08xDKSKLKESbAi6yz4KkMnNwnZxt9NEyDjZzuYfcE9w17BEBb5Xj8oag58/xLzRnnX2b8YURZjUAidSdM8GqRaBrR70hmX96wJVKMuYW4MLrtzjvvtCkACB5YqoPr8KYubJIUiiXYkDYn2JVJrSZ6KAI69sWORYwNXit8sme/JAcSARIXTjrMVE3Ax4mHrgumDmAUnzBOXNcFWpzcxF0neqQpADATPuaxGKZRGtEHhAlbd2IrYgz0YCzdjjF1ldS940MCATY0QebWW2+1AImAhuOIrjZxvZIB4v1NdH4cmxTzMyhCxq24jtkbjmsRZXOsEnAxso1tI4gijBqIL4D+LfrlL3/5vb/+679+38SOQNdSC5y+BaYRHAFHgOUJgjGKRWtMGKAjkxg0h3fvNMXBbhOKt9kisNblZIGRd6OXxHY2JwZyDDFk3mbqxW/8myVCKNq22gf87WmV6AojjU+tDnRKeMVM0oAEMnkfosv4fQiZrQGWqH/yIQFkMZZG7iK4zRiWWiDMYqg8EgL6MQlC4O2DwNsuw6Io7sBLJUD2KlgufjsMgspgaMT950E3z00owM1r0vb5JFBV/r7MPoVQYqREDQsoN4rTc8GYWbl2o6mJod/QU+WznlsFi7oTql8DntGdRVw8og3izVxu6C4LxHFF8EBNBW7MVrzNhTd7ipL5FMz1eUPnuZaaUdVcT6d/eXotiGBbXHLcP/tJYMfJi31h/7hwgpGEixRVU1zNzxSes8grtVXcRjQh4tZg23RriDZEhNYzCYwmaa9nnetJtqOblS2AcZUDEHoS42EI4KeWDwJ33323+cY3vmHZRwY1cFzwe15XHF+8DuiqJhNLsCQCftEsyRgWl5u9eZXHMFlagnI+nNC1S/2bJBlltCQ0cVci2/374W5770tf+tJdeqLUAjNhgekDR9AB8ALKQ0ScgtvKH4UAGzdgAqJ4DYpG4mLIWeYIC6gQykMKLAwLMIUKHrhJIwFd0MsszHJnwEdl8EQQZYkiW5vMdVcRK9hStaCB8nCpUdhcLIHjoaA6j4zczCKANYL8HbmQqP0u4scschtxpQITLiKDNvNI1oDBsiyRRJFZ4FIGOeCV/FjfI39GGKtht5/93sMtNhOTsw6/80DciCfuJD0VtyGTRf0TM4BjPYJCH6PnyGihX86i4Kj6VULUfdLi6nZEMCyZsSUkXcLiCcYZvv7KV77SMjJ0HZBJosvpggsusDXOhJ3hNnQriLvA3elUAQt3/HCSEdZIIn/osuBkIjoi9mHLli1WUE1dldRs43GS6eKTOYEV2+GTPt85OYmmyRujM1Po3rXRJFgj29WZuFEutn3g/J/AmM5gzNQyYOETn/iEFVvzHAmgJsAmQKJejW43giNhIjnWZIy5rmAZV7wepTyNXIcynslGsT22ReaJDyQI878U4OhSnIdTBkc7D3WEdu09eE7PkX3nYs4J4uE21dLachjXxt6zN284sNjOrR7vxCwwfeAIhFAsFgFrhDB7qyHCJE/RNPrF9xxcbmFkqLYxXVZr5BVr5UXD0iJ0s/mDYHKAhEKoZ8YLSZgl7x3Ca+t+g9uJjJKN7AfAoYaJXqkQ3GigjgK+AVtA1iC8v1AEIApkTQ6uNl8JUfDIqk3dUpEJFyF8pm+NDrUA1i/YPnkAhutQMG5v3nTbWZwkD6wnv9vgfOvs8ogLrwAtwd/Id8JeVAKrEeEiknfDpWZZKpZWYa8gYC/mABZhF0fepG616uP8WRMmbSsZsTmWrF2ZWLN8k5aCmfxN1mPTfAJmdBsZl1tuucX84he/sO4pRnPRVcAJQGqeTeySO/W1OAm5EWjst1Q2p/sBdeTs0zy/p2CWtdjYXzkOHiPbELZI8tZwHNLVQVuIe1A0JhKVNlMgqdIqwpJNwFrKHE3ASKe6CoDRPjCSKbKnn/3sZy1jRNAi7l2OC14XzCMm9fM4Zsg+utGKIsoWEMwxKABfkpuyb3JP5LUktQX5PR86CPKx3za43F4CgHbzpZde2jvR4zncmwruOdLxoqF88L3pWOtZx44fCx05fBiE/MHBFXtO7P70d35xK27Px5OJlGltqD/Q2tzUVVdfmwKCysXDwVxTU0Oqubm2r86vov+J2nyhrDdt4AiAokQAlEXJjRDC4sPIPu33Q+QcCEMEjWSLiA4j00MRtSfQI83qRZwJkAiwlId1kxGQAEiheKwvANrIDxoJf8MfBvcTvsOLbihbrxYjneDLFAYBklh7DSwVWR7EdhUBjIroR8kshQi7y+KXkg/6DbBLAWRXDGLHYYTzM+XiEAXkZQxkZ9pyPqYyf2RdgSPsz4jGiOyYDzcOATBe9m+PYSJqsuwSherS+PD6AqZQn4hidPyey2FSxHEX2Gf0K4D3MOw3zLipW2206/AkcESbu9mf5QYvLiQpqsnGeHOWaDCyKXQZEIjQXfC2t73NJpGkcJuMC0XMBE98Yh4BtlOPVznZCFPFqCCyRDwGaoroguCEc8kll1i2iCySTDTyQCGaKAFY7CvBkLAA3F6yIYv4W1IVuJFFM3XTO0UGiSyh6o6m+ORgzA1inA9+5jOfsakeRNfG8UDdGgELGR1+L4lLxVXtJhYVobaAXY4rtuHWMyRIEnaJ7CzdcnwAkShT/sbvcM1txEMA/ccTBkf33PfQpfduf/pvMsXABY3ty0ysGbX/lm6gG7AFfVmLoXMt2OHsYLGUyyV8qbS/MFjs6Rg8euRgsuv4YWSzzPc11NV2/MtnvvRMW13tfng9Drc2NvS3tTUNtbU0perr4qmaeB1DpnVZYBaYPnCUzwcjNuIKeZ6Z05ARYKUcEj+yhBhcVshIbSP1caG4ye3cSca6yOiCQm6iAJgdlgexeh+6l3DB5MAo5Vnug8Jr3PALaNdedNQjlcELC86SVPKzE0RPFkGh7hr0RbylMmweUycFUl4bVu1sOzZ8qq2f3EFHXtTbyP3YvZkTDPmdkOzK8SLH62Ejrw1x+ci6QWYQRwkTCsbJZZHGYm9wpDb3k89SYwCXJdxVdHmWBWBP5jmyT7Bib3lalTIWLiPi2p+/i9tAWCT+zhdFzWRmLrvsMhsCT3fDz3/+c6tNetWrXmWBiTAvcn5dFsqNamN7BGVSvJNP5RKNJgfkujAIirZv326BGcEMXXvnnnuuFYxzwnETRXL74YhPxz3m9k2KyvJ6qdRjyZP/TLBG1YCQ62qrdE1WWV/datNwD3jiqacv/+Z3f7DiWFefidVBjN3ZgTEWAWO6xaxasczE4RUg759Lp0x9XT2ikcEq8T5lH3LLmtDygy8BkgAm0eZ5D4kj16cwu1xPitTympByJeWoyzYAsTYc7t6JHPK+Y70t9z+1+yUr1mw8Z9+xTnPkRJdNr1LXgNqF8FqEw0FTg2unPh4Ln33O1vCJ7qGazp6eViYEXnf2hWbllnPhVh+EGxppBvB02h+NpOGETh06kRzqfepIPxiuAQQO9b77o//bs6Ku5okVjY1729qaD7W3NPW0NTX2tjQ1DEZq+CSvy3y0wHROrpYCsqH5jixgrEc8uRHKjV3cTgHe4MsXWgh4gDXGJOLBD/BDtobr8CJkMVtJSuY99XqnRUKevc8AZ2U3GcXdcqFaAU8Z2NhosvIiE6zcmKu5w+Q7mZjcCc5dv3KQVN7s5QnLAjzroSv/Kx//cPy/PiyPdb1NmkmonJhdAEt9BW/WFD3z7xtvvNE89dRTBonrDMKOzVVXXWW1EhRHi1CVQIbghZMCtT4SXs/O8zPdBpwEJHqOoMV1mfF7Rs/xxW0pqiYokggzATl2VGMf1cbffLwxnUKf1a12CsaayKodHUfbv/i/X3r34QPP1LMSAFOKrAEgamtt9lxoYZSYse5nL/fcwOCQSYO9r6trsFHGBZZfKrus5UGjkoF076Xsk9yDxb3Nd3kRGJHFBRhph3vvHKw+oai1n/70J1c8vHP3q+ONy4PNbe2mbUm7STGYAX1OpJImnyZugZ8ABdGjfYOmv6fbnMBDCO+x7W2tprauxjTUx81KHHskjJAivz8Ob0i8kM+1rFydLZdA6cVDU485gOLkXaaUWhoO9YeTQ8eST+04gAjtw//29e8exPV9eElj49PrV644fN6G1R0TOQe6zuxbYFrBkaclOrnGmAsU3JxGLjByQYnc7N2naLmQpC154pZ3N3md7F/AkVyI7sUpTzCVoMc9PdI/2U7AWbVtXMBTuV7l/t19jAAjRvDh6QsXMfVQNiuS4350tpk0CJj9oTe/esDxQ5aHN3sCGi58wqV7geJturco3EbIsf39+c9/vmHuJJ43iroJYuga4DmW/C+84RPQ83cCJLrOyE5R+EowxIW5lui6e9nLXmY1Tmy7nCzPtjnW4rKw88vap9RbvQZOyVxjr5wcGvDfddsv33L88MHzmhg4g/EbjaJcyNJlpgnjN51GHiKAega35HKoNgAQEwdzFKEeCUx+AG7/kXuVe9/yPAQCluQ+6AIjbieuObKq8hKtE66NCBJOvu773//+rXgw2TPeYS9ra6rvv+PYyqNHj5mlq1abUN0SMO8+sxQu8lVwDWbxNHz02AkzmC6a1gAeUBAglENxdCYSHmK6GZa3wk6i0M0WUZkgBA0s7+dRXIMNEfyNH3n9ZlNpk4aHJIMg6XQqjVdiaayh5Xx6L1LJoVJnf3820ZU4fmJgz67v3/XwN9cva//52etX7h+v//r77FpgOsERjuxkYFR5qJUXUeXvAmjc9dx1OFDFXeKCnRGWyMsFU/lE7T7FCCCpBnYqL2B33+KKqQaOJESc67vryfaV4E4+y+9eMkvcTAiI4PbjP/t4TH2S6L29lXVimKHrR0KQZbwQKHEcSTg9n6gJZCiEpruN+WDogrv44ottQkmOQQpNRT/hRu1QFE026uabb7aV7/mZOiaCK4IvjnEpZUK2iful1oPjrLJobiUTOUPmmc3d6DUwhdbv7uldceBY54uyRX9jIg0WCJrHVes2mVhtnRlKZcCgxMyaZStMU2ODlUVkASaYciQA4JC3kgJ+9O7LLms0lntUHk5lHQmWkIg3Kd9DjR8CEM5GNvuLUIdtP64NS5UyDxLegolEMg4g1A7QEoxEwoWHHnnshTUBE00ODZrH770DEdN1ZsXqNdCVJkyyt8tEkVS3vRkMUWMzXIO1Jo1jsnnlCtC14ngSGQb+oHAu9J6DKZYiCpq6WpSpwv3YS5aKzPsoRl5TX2dioPlR69LkIogIRQ0DBgxxvXyoydcYa4+goNGaTCaxpiNdvCZ3rPeRe3fu/4fNq5f9qDke0YjjKRy/U9nUdIIj1m+o2tcRNufkJwtZ2WWbXGAk2iSXxXGBhQAVASSuhoO/iQjQ7ZTbvguQXCAzllus2gFWTqSVdnCZKtmnADY7+Vrt9og7bRgClYXdjlV1Yqh+NUyLXQT08mnRPkGWa65RnE0XAIEKRdEMn9+xY4dlk5gfhjdSfk+wxElD6k2xFhXFrlwobiWIuu6666z4mxMB98Ft+eLY5bZkm+hqI9sk42g0Bmm0628qbyBzoK1pOddz4LhmpQtHOvvP6iuEt2y77Lnm8utejGjjuInV1EGv0wnFo9+01oM1zSQwhhOoU4lrANody56QNcL4zCMIx/UCyIOq3OcqD6ry4ZJjmaBI2H/RK8lDCN7b8QDxfjC0LR/5yEeOI6Ju3X/8x39sgReiMZcrNhw/fqylr7cnhAfLKLbdRIlpMBw1Sxri0AmeMH0HkybRcdBE6pvMkhVrjX/VWlNM9ppUd8zEG9tNeClchpy3AApt/jPokkoEfiiBxUAd1rdkvryoTanhxzo5vPoQ0AOGDZqsWtaiA6uUyKftuhFEXtdDs9UPva0/QiauGB7KJi493Dv0wfq6gSOwxyOzcqJ1p+NaYDrBUfWdD7uHPHbEBSfV9DfSiOsWqwZcRPDH31y2Ri5KN7kd9+km7ZOL2d3OZZeqsUoumBkLPI32JC/bsJ1KUObDk9iw5qgMknhcso1jWJ0Yxh3iU7OCABXevMnscPwQoIibjRE7IrDmbwynv+KKKyxIIov06KOPWq0Qi9vS/UadErchaGKkGXPFiNaI4Emixti+hD+LWJXjlMwR+yKlTSqB0CIBRlNzcrUVa4HBdDq8+0jPpm1XPm95AOwJ6s7ae04Sk3xdACH2ybRJlOti9qbAYKb7TS1SjtTHwgBJKKPDYBk8MMg9XbLSn/TgV35grmTv3QdGN2Ek15PrgtcdXcz4fRtc0x8Di5pF/8L4HOJ6tTVIHQNgsgsAbd/+fRaksBRTNttptuJ6XLXtDBsFd+TIQRPo6QBIOmr27njErFi7zqyGVjA5lDCN0As21DfaqOYsji1PXgfgKA1hdj7HElM4RpblAeiJgjUK8mEWQnQ/9Fdk+QmKmG7FxMGcRQme4DbPoUoDkg8zPU0S/SmBkSqFfWf1JTOv6h1K7WyqjQ1n9dWhOHcsMGPgyAUJcvF4OY5GXG/uE0e1v11QxL+rUbXirnApWmGXhElywZC7H/e0uOyUe3ELSBlLc+QeUyVwqtSBDNvCusw8rENftmiO4FzzXGvWTs8aOAqOql9LU24Xnm+CH9EI8QZOjRDdXdQQEazwnQBGwpsZYUZX2x//8R9bkHTvvfear33ta/YGz2izrVu32r/JOMmLwEfqtREU8Xt+FjAv2a3pXhPXhQKhuXNDnc89GcjkN+86eOT3DnQPmTM3bzCNSNwLV5XpHUqaEhikANKvdGHchVB6qXHFBpPt6zQDABiD/V2mIR4xjTW1SB2HYBk83I31wCj302rjlteZXGtyr+XYF8ZUii3jASKEay8kD8U2fQUA3bJlYH9wvfT0dpvOrh7o/FqsTo9avijA0hrUEWxvXWJ6+wdM/yAYsNSg6Tm2z/R2HjEtrWtM29IlZunK1aamqc1EwJjFUa4pgus8AfBDDVIIkdJ85XHdp7G/cADpVZByJs8AGj7AwvUG3ITkxyh/BTatgJs2U9mE8tgeLBT/zsAfmRjsM8/sOXhjrJD9H2y2ez6Pm4Xa9+kER7g+vDnKK/HhLWOBnkojC1tU6U6TdqpF57gASp5GKttlHyrD590LtRIYuU85csG6WiX32OR717XnaoxcG1Trl/0O0R5EQrywUFx+ONWBC7rKUWvPygS9UAfqKR7XlIMjnkOeUwEk/JvAhd/zxk0WiG4xghZmzKbLjTdpMjs8b3SpcTyyLtW1115rc8UwgSNZIi78Tca7lNDhdmzbHY+So0nC90UkXs0+lUD8FG04X1af+sRS8+XIp7Cfezr6zt2x+9CHDh3p2NoK8TKis0xffx80RZ52hlG9LIUUr2f5nIyBawgh8S2mGXqbTG+HSUHD098HAFKLlBRWbzSiOZJ7HgNwRCZZeU+V+yrBjriJXcmBACSuJ+ytrCtJXUPoHxMDb9iw3qaAuR1Z7fmAwdxwBEebzjjTNAEYxaMpVGloMLW4NrsHem25qQK0U8nje83RwQ6T7usysUZokVraTU1jm2lfvgIACBnlI6xpCLCDtskccX/QjmCfcJmh2qYfpRWKYJH40B9DhQd+x0QyZJb4gJshWOJvcK/Ba4cwv3x7OpNvmsLTqE1NoQWmDRwhZxDHiS3dwdxC9gZv2Q9PIF2AD5cDTSYGmfgFuPBdXGHu8bpASYAIf68EUAKMRP8j+5FJyN0P13G39y5cZKh2xT1lvY9MOHJBuhe5PPW4LJkrKhdWS97lhiDvw5op0LcBPIFlChAB+ujpxk2FeY8wgSaEaQugurovVq6/MoUjYmE0dcq5b8YTMrtgWkC5CE5FD0SAxBu3qwGSc00QRG2SuN7okpMxKJOHjFF3PMg1IGOd726OovEi1ipP56kCptNlpcaz61jDzb22+He1a7q8vQKk07huH9t3dMuDT+75l96Mub4IfU5zsGiScCN1gVlhIe44mJOaCJTNTMDLBwSIlzsHw+Z4Px4IalpN06pW5IfbZUr9R7AO9HDpJEoyRU00Vo/tEdaPOxij27KoCRkMxod7OvzwzFQsAEU8v7yv8hrhuOe76Pzca6XyOpGyN/bhJRJFDqOwWY7w+/a2FhvoEART09TQaPbtecasWLYEAKnBwHlmGlvqTMtQI7RInSaF67EZUWkFHGMeAKkv2QfN4AEThYttoHeVaWhbYQLxJaalucGEoCsCtY9kvUgDg+Pi/ZlVFGw2UvbBljdnjStUdgAoKsI9hwwHOBZj6gGsSoiG88HN1rx8ZX55e23/aZw63XQaLTBt4MjSRhXP7xZsOLexSrbGBSwuwyTHX+1GXQmqZKKpdONV2lCeSgQUyfqutqmyf8IAWb1e+dhcNkf6L1Sv3Nwr2SQ3mq5yArD7YPLHMmDzSpu47seT5oFTBgHTOJbmUtNTzhzNpYPTvpxkAQVGpzEgOvoT0R17DryxmC9dHSfb6W/ERA9hNcQ2RbyG0kNwISEEvwlx6gAFPgCNDCKxWpobTS2Aw8F9e5Ckt2jWoTB295Gg6ek8iPVqcA8LmBzYJQIXniB4mSDdATAaIzaL9z4RY7sPse493n2glAePYTlCOakkWVUuzEVGcCRuaT68kEFiEWa6wMnKch0GQ3C9DML3WY0hAtdXLYqll5hsGLmQEgcPmUxHt4kgms2PfElFMErhmnoTBvjzo0wVCoXiwdXG9VvbZHnArGoARBgACWAjj2kFR0JSnhOgntBgtdMYvtO66bSBI4Lo0XpuQYf1HI3c19wL4GT3kdfKeMCo8gIaDVAJO+OG28u6wg5UtiUARr73QNKzM1uPduG6/nf3aUn2++zfYRxbSoW5jvgUAjJWLqyTraogoPogU9A4rbeNOdV4xSPXnOrbnO/Mic6uM6G9eQNojSiBCXU5dBNRL8On2xQABUXF4RAyYqMWZRjrBKkpAqsdxd1nGRJDJpAA8WhfytS2rzdRgIRsoh8amwxYJLApAAfwEQBoQBxdhCuKjAonByfJrmsk15XmskZy/5d7pbThtsP1JcUGdUbr16+3EaNcR5goBkMwAIJuby6DCPPnuhR7d3Qct67yAhMgIYQ/hqzfAVZQoJcD4vMAXOaZwgBccZ3GF28AWGo3dU1LTayhCXdoFCy3KQDQLsASEx/bnElIA1AqIOqtopBz+TgY0a338Dl6lUwnOBpBPsNAyAtPrwQ7owEbF+BUgifXnpXAaax1Ky9MoerdpxBuX6DvmJEITnRFJeByQU0lA+SyQxMBRycLyU8GR8IcVRlDemEpOJqjt5YZ65aCo0maumswGX5s557XZfKlDRGUA0kDEJEtyXFCR5tRZMJmqaYc3PwJFGYFFYKcPtDYAUClEkO2nmVLE5gmMNsHj3aadLAeySLXm4Hj+1HasstEIE72A0T5mAMILEoa99SwLc/kLS6wqfzbdSO7h1cJjuT+LKBK6rQxWIIBD/v37x8uyhyJRa02kECpCfpAurbjEJ0zdJ9sE4+LuchQFQTYCJm0DYrkhhCJB3dbxOZyYmmqjMkN9Zo82smlUHoN7sdUTw1yJSERZi3ciCWE/eOYM0i+nUdtTFbyjEG0naTeqnzo3jHYo+JD3HTOwZMcGboZLTBtJwYDgAmeT1rErWbBCxMb4imjGntUCXwmygq5F914gKvaBecKuCV7N9er7CO/K+AGUhmCL226OqfRhpkLptx9yE2BthpmjlgQ2uqgWP32JKsqQ1LdwGqXxXN/U7/EJM91Ol9qH8oUnssCTAHcV3K5tBUnExB5Lq6ABQw5hPAnUUONBb1D+GxD9jHhU6A9CDYlDBC1DElQDx3rtts2ti0DjgLr1H8cof5giwiO4KJjAkkfwEUlOBoNJFU7rLHW5W90lUmQA3OFMUhi165dw4lYGYbf39sHUNdsWZ1GaJG4PhmnFuQ+ioAhiwEwDSWHTCqD7+ktA0jKgTWrKQEsQtwdA3vmx/FDYm1Kg8cQtYe0Hij5lmtqRy6jGuNDsslgKAaWDbehfAnuRYTuk22zt+9n3b81qGaS43e6N5s2cISOV71pWVhU4VardKNVc6GJIVwmxxU7V/puuV6170ZjlSppXvlc6VJjP2yW6nL7bpSR527z5uVKGthlj9x13P0Mgys+uZWpYMRRQMnn2YyXlQVPI6NCmSMFR9N9j5jr7StzNMkzVCj5lhRK/iXM5eNHwId1CwHc+AGKeI8r4nME4eeI/bARaiXoaDKM/sKkH0NJET+YpAyyTUcAOBrjMZNCosWevhOmbc0KMCYF09Pfi3xBLBqO+2E2jXxI9SaThItJopgdoCAPhW6wSuVhjeaKcx9KJVkkhd0EPXSZyT2f8wFBENNqMPM8XWkipWC9OB/uu/WIQguydAmYtFASof5g05hbBXAQkiKWAgfYgwo7AhvQvUipEZ9dc5mkyXQeAxYCKwRReLyhGa8WsE1RW9A8DUW2fbgtzw3MoJ1HFXX0bTrn4EmODN2MFpjOEzOmUNIFSAI0KkGSC4gqmSDP9eUV2nTBSDUQVdlONdH1WIBM2h8BZvYb26wL0OSzRF7wc6VLbbQnn5PZKUbPjWiOrJzPEfM5Q1fBUfXrWJ/GFs/9TQXZkzzXQ8n0ulyx1ORjPTQ+2PGBDFob+L4gvIYYGbqhSAxgIIOSGAkwPgBLSRRsjVJoDBDFjNjxWoiUya7kUmZ5c43JZiIGle1NezxkmpeuNJn+ToTJA6QAPEGMNPzwKPdG6bp7nxztcMYDR/xdoog5NxAIrUVeo2XLllkBNhd+TybpsssusznGmHrDCrgxEzK3nA+R1RG4CdlWFDqpPNZnjTQmdsyHeNvnQze114ye9KLsQgBWYeSAiuL7NATsyUQnUnicMIm6VhOuXwqwVGsKYLSIjZgIksV56ZIs2IR2Jbaqyxy0wLSBI4yDk5VmHAfDkMKzRGX4fDUAUA20uGCq0qZuG5V/uyBnxH11chLK8fogv5Mg8rITeASZF8HmYRUPMHl/86uTX44Uy/qeR5I/Dv9Ny5XBENsvQhBo3Xz8Z9setqSCoyoXFexo7TIe4J3p63E0dnKm+zEf91f5UOGcW/yp+Ggy5xTi45WQB9QEgmCBnHsYI8v8oEOYOoQgKAwwRBsTKKQAOAYBCBiiX0PmBGwSQ+UZrs8Q9SUQaB8/esJ0AwSsAzjKAhjl+tKmBu61HDQ+PrrWRhFjyz3ZPRZ3XWHxRztWriuSBtmORaGZfZ6FnPkbhdgUXVNbRLcbwQ3Bkc12TzcYXYdMIcCoNbjOWA4li4i1nL8AxgzgsRxdRoF1ke5CPsQiLx14JROBreJ1MVOTDyDKLwuXYxcSZA4iei1kGpcvNSUApFBtI5i5qMnAPkOZbHAwnambzLnTbabfAtMGjphWnTOUvW2VAcBJwMM+pYwwP3Ko7gXisjKV7rDKC0W2q8x3JJOkyxZxXTeBpEu7jgAob3J13WMn9wElPoYBDJP4WadXWcQNZxgoWg/snAyOeB/340Lj+u7Tkns8AR+e5HARWorZT3AEoaR9mvHAmI8vRrBR6ajLsyxAcCTjQWx8uhPo6W7vXQbe6aocU+M9EZ/uKa7W/lTtc6raqXaM1QARbXeyNpDYSMHRZMYIRmONHwl3aL0MJvMsorRqG+pMCujIh0KrTY11XhJFgiQAoSyYI8SomQTeA8hZFIuCPSpBS4PszwUqTJGTrQmuKtO+whw80Wfi6ZBpaF9limCVhgYHTF0YbTN2rWI+kHvfRMbSWACJv0mEG+/3kiOM7jMySnLfl/I/FG9LbiVrPxwDr1CrJQVAsiHJxEvgoYNFj4wOOnMC7+F2Fdybkf0AuiS47ZjcDxtE4FoL+LMmnkEqBLjmMgcOm16ApvySjaZ2GZJUgm3KForR7kR6Aza4ZTLnT7eZXgtMGzjiUPOYlZPrpwnrwwD1aqpZudFVY4CqMU1iHmm3cvuTAFmFLV1Q5PbTm8BOBkcyuYnG6NnuNC+bNSMz/SxNXV5c0bZ7U6DbzAVHw6yRnUTJDjEzrQewSMWOsig4qm4YFWRP731jLrWuyGiSZwPAp8ZP9xnvd3iFUSuMCXupvaHvKAfWhHy1ZY+gxcllcE+CO6iIgrN5rJPFw20OrwD8RXxc48Mh2aUAmKa6eNT0dHWY+qU1yJqNLNoUPdtMiNUDXLx77sROpbteJYCW+7SwSHStidZI8h8R8DE7vS054uy3cv+8d4cAoDxXmngIRioWuPdv7x59cmoa+tF8sJvNdQx2KTUwZIb2PWOiPX2wS7tpbWkKhUrhmmN9mcCyxsizmYJJnlfdbGosMJ3gyA4Wb8g8GyC5A/HZwOTkcP9qAKsS9Ag4csFS5XeVF8Jo7XI9DvZqwKpyG3d/7hOtXKQi+DsZCHnHJ989O+qNcSF48mEm1TJV7LIN7kU4NcNgwbWi4GjBndJRD0gF2ZM81wAyKIMGoGN1MHA5ARxZxpp3bdx38qxAD3E2EiCZGiRzzKQToEdyHjjKMckjkh4G8xZAWLExQQT+heBCq6+Lm2OHu5AtG5Xqa5qML5E2WYS/B8oyhLFAySQP56QAHGGYyB7RlSb3Zrl/26SPAE5yf3U9Fu69We7RAo6kmK7b/9GYWamYYPcNdq2GOaRgv0THPtPXsdd01dcHihs2bVzZ3MyslcnJHrduNz0WmE5w9GxWoxzl5QIKGWSjMUaVv1czgwuCqrUzHiiq1h93P26bo7FXcnG5gKoaa+RdbJ7gTxYXQHl9rQBHVndUNfhPmaPq14WCo+m5X2irC8sCrGpv3U9FG9wCdgg5jYg2eXtiIkhGorGuWCyMUHx/wuRwb+L6jLZi3TVmhPazjlrZ5c/w+ICvgMi0sBmoiZuuvoSJLoFou6YR68MdV0iN+dA5EdeanIJKQON6Atx2mpubbZFoCfFn/zs6OmzOI34v7rdqzBXbcRNTCnCq9nA+1tAIQL8U8mVsFJ/fjxIpZOaQL2mwpzOeHhrS+9UcvK6m86TQCT16mmwLAkYoSgEwAj6qgYFKhskFTqOF7VeuY3MHsYKy4zuu/Nt9cnABjGwr21eeTxdE8Td3ffnb1pXDDaTab+533nreTUu+t76+ky2q4Kj6RaV2mYM3m2nq0sR8MdO08/ncLNxhKbiWStTjWM8P7ksZZHUu0P3FTNdwOzEhJAFCGAxSBAiIWkcmaeG9Lod7UxasE4upWg0Fo9ZsFDEyamNmaW1qMoOpDOqrQq4drTV+lOSQpRoQGctDMNa9X34TEOPev3nvZHkQN2yfx8MoNRaFdlOxuH1zgVblOa4mh3C/k/0PzzWMgmNePz70wjZBPBwjIBBACX2rjR/ZumWVF0qny5yywDSDo+rHWs1dNQwAnE0merEIMBpNjO0O+kpwNJF9jMLa2GaFOh3trMpN4GRgVS6+KwBI6qg5wG0YTJWFhdXsg33qxFDd8NM5rufUBaydUQtM1gIo0NoL1xowDiOxQpYtsqwQJnAfBdi491CETVkEhceMWkPKNca826itHF6swUYxNlMB2MhaOuX40Ivs0HFGZ8XrTH8aIAvpAkI1XmBW5UPkZPtfbbvKB13qigiM3AoI/JvfV4KjSja/mheiEgSN1nd3zrDAEykSqN+iNfPUaFklN+xpSgqMpnIATGFb0+5WE0EAfdneBO+xRVZsXCV3j/tE4YrgXJapctBWgqLR6FbazWV9XODi/T0SnUbBtOuuE5uPRvvK99WeiNzjcM/dySLskZB+KcPj9dUL4RcYxO9YmLa8aHbg6heDMkdTeJOY403pA8IkTxDA0YlCsZSG4Dps3UuYwCFCsqEgfoAlGxbCe7SNrIXTjckhGedvEQ6BFO7lfEnwimWcsA5+LCCjdikSME2t7aYDGakbIkGbbdvesMo6ypH7nwesvJ9O/dKVbVyvAyPRuBAESR013puFXSJbxtxHjG5zl8oHd+mjO+e4D6rVGK3K47DzESKOadsiQGKWtdaYXJNaLZvlV5e5aIHpBEfIKcaoB5z7AqdzL8mYJDSUATQWvWqvwTKAckGNq+8Rn7ALQKoxPQJ0RgR2I6JvLzLNe7mRYdWA1HgncSIXtxeUIWH/ss8RHZKvxEy1uJCRsr6AJ7OSD2GoCOknJkJmEfTTe2FfemFVOSE418w8W06rMAJ4xzt3Y/0+kfM62vaVN2+3rdHaleuiUuRfbR9yrKf6m6xf7RqU307nuOX6PR27Vvatsj/4XQXZkxzYTfHAE3VhX2dXIlufRT0wZiNhpugkhMoM7WfdMUZ2ZfGZZTeY2yeESZ0sEV1uvhBD+xGxhnt8PBC1yQ39AEusR5ZDe3wgbgR7NNhbQL6fjGlc0mxdaxnUZYtjnXQGAAri7qLleT0Jhty7T2XcuQ+5Ygq5dxP8VLLucr3wN0np4iYUrrwuqjFI4o4b69pxTwuSYXuJ/5gjivMg3ZXgkdDOqaPBSZ5v3ezULDCd7gdMUBzyHkPElDwUIlfzBFVzdZ1ESzohnpXI3r2Ju+yN68Zy2x95EvBCT+U1ApD4FDNykboAbbR9n5rJCcJkH2TRnv2iz97mSQLpmoPokXkyCDRtPTobFVLutxUA6FJpAZwn+zh4KjfY6bSie3OtpO75mU+3XEeedi07iIlIcrBM9AY8nccwh9tW5miSJ6exJnwcrx0sB8LIWLJEHHNBCKzz2Zx1tVHzSCEzjeyHW40AibegECLbAmCScrg3pVGDzM+yI3iFwI6EkOSwZLNOo8wIsig1gjVie5kism3XN9syJCzI4bfh7/QmgKti7jYHJ7iMzHh/u/d3ue5Fs8nriywRX5ULQ/sFFFXOQcOyhrL0YVgD6uhV3X6513VVjwOOFyydtbP1qHFOhJgdAvbwJE+fbjbNFphW5mi474xksC6rk/Me8YJwAYc7iXBb111WeYG4oEWA1FjrV9KflfsaAVn28qoaUTFV56Iyq7bLcvAi8+zi2cpGUpTBGtPYMxmks+jEUP2kzKmnsUqdggt2OGaZkZfvElrMQ5KbtgCmqRp7C7AdvQYmeVJDofAQXDt7oqxMD8DCMHOCCGFbOAZlbNpxGkTBVZDVdAgwlVsJLFGBtcfs9xRtI1Sd0Vh0wZWT3BJs1dbVot2sGejrMc2oXp8aHDID/d0oQ4K8SrY9b26Qe/pYh1MpmTjpZlhupJJJ4nHwuCQMv9rDxlgPvqPNFeM9LFfuZ5T159S9apJDaUFuNjPgqGy6SnpyLMBSDX27gEgAhQuIKtmm0Z44vHZGLsbRLhZ3f9N19l1gNHJzoMCxHM1HcET+jTcQyxydVHhWJ4Z5AI5GgPfIfVDGptzs+U4gJGNRMv1KmPF0jb8F0K5eA5M8ifFIpPTz+x4upCGYLgCkENDYxIjgXQl2eD+lmJmlNfg3WSOb2R/giOU1avFbACxTCN+VrPufjCcfar0KAPbhDjqmKLRGURSq7UXNtWxbuwnVNZiB7k6vLAmLbFOJZBUY+KuCPZrIock148otuJ3tc/k4vPQD+eHEj65ngb+5c8B44KkaIz0agBoP8Kk0YiJneHbWmU5wZGeCagCoGmhxB5H7+0RcI2MBKXdiOhmcnQyOKvs53qA+ndM13jHZvpR34LlYysBozMQIp9OjBbftdLqLp9RYlQ8MbLzyJj/eeJnSDs2/xhQcncY5y2ZzuaGhhCkFIqYOomwCdBu+j3dhNUVfQ8DE7NcRMD50EZ04dtz0INM0L7YzNm8yy5H1maWNrAsOKKlgwQgi4aBjsgwUvu8BEKuPIWoN3xVQMzIPRidId52NfMOWcNVVu/e6AGi8e7P74CzgiNsQHAkQkr8FMFUDRJX7qeyDMMJjmX8s0CS3+NM4fbrpNFpgOsHRyAQlLI0TDTYacHK/dynUapRkNdpSbOWuX51BGh0cVW471fYfT4Tr7m94XRuw9qx5QCnZ6idnTtrFHa+uq01E12SL+KTOd+o86GbjZCWapKkehwuovTl5vueDfWtra/cE+9MZyKsjDBSLsXo89EEcq1aMjRcX+5BGATPda7GILbLaBWB09MhRZMCOI8t23qSxrtXTkGGylevhZLM111hPDZm24b7rS+RNTW3cROP1JtPfYQN2bEC7rVhi9QPPAkeV181YQKaSRXIzY1eyRQKQBDCN5UGovCfz+pX0APxtvLmqGqAr39s14niOXijTCY5Gblj8y4poTgYk7oCpfIIeH9ycHIVU+bQ93vaurkhcc9Ui4tw+TvUT/JhPK1VCWqsARJ0U5gE4qjxv7jhyxy1LGuzatcvmX1mxYoXZtGmTTWCny5gW0MnlNAZIa0vrYwd7kj0oPL+MQKgG4DwIloeMDkEDvyPrIwDARoBAVAw0ZEE7162pqzMRbJelOw1nI4hkkSVE3DIdCpcswv8JfKJIBNkF8XYSn8PhON6RKRpuNGblLoA18gNAYafPcnFNlDUSN5owR7KduNTcdxFpy3u1h28xazXGSECXm3iy8jSMdn931vMU6brMSQtMJziqSne7A6aaS6GShuTnSqG1WLKaxsgFOu7glnZHAJBHbI0Gytyngqk+c2NdNPbCHm2HZWG24zM6OUnHVHd0/rY3p0CjgKFqIElo/2eeecbce++95sCBA8NlDS688ELz/Oc/3z7NT+BGO3/P1un1nPeZOXW+T+9wZnbrmtqaY2CEOovZ/LJkMgGvFirHM0mhU66I40+y9ecQSZtMJZDlOWRicMPVNzbaPEcJlOKIxiHIRtoWph+xQAX/yHymWawWn4OouVZIB00KaQLC2AYuPROM+U0aYu08AFNNrNZG5lbel+Wzex1Vs5ILilwtH0GcCLKFLRJWjO/VItnc9qVdt03XGyGRpZN5eMY26hae2SE/4b1NKziyIfHlis1FjAErKi4nV6wGetwBNx6SHw9gMCPQCPCRQrK0C/MDMQrMA+wu8OLnan7kyQz6CZ+BihXtvvBfEYpsWwCS6Y1YuLCcor/AHCPIIRJA//1uUqbJ7nBhbjenNEdyc6W7TMaSvIdR0PPw4cNm+/btZt++fdaVRtca2aNbb73V3rhf/OIX20lGJiy5NvhEPx5ocun+0U716Yzviez/dIdYJbh0r1H8zQtZwdEkjYw48p7WWOSxQiZ3DsqwmgyrgxQytjWOQwEmcr+Oo0ZYEkwP2aHm2qhpqluLEP8gsmEjzxEE1QG41zy06p0S3meZusTe08As+TJDJlNCIkTkOyohY3YuN2gw6CEGD5hMNoN1q2cnEVbIBU6Vf8s4sYxWObiB1w+vMW7P792xI8BIotkqE0JWmlRYIgmWcJmqyof6SrvJPUC+F7cc2lRwNMmxO92bTSs48gYCJ/qRUE13QDvpi04Sbo92wx0NPFWyQsQX1VgpMeZEw0an2/in2r7lYMmk2To9NK7VQurybAvMucnSpeZdgMTil4899pjZsWOHYd6VdevWmWXLltnaT48++qi56667zJlnnmk2bNhgj1Ju4G5Y8umAGx08i9sCy5trU7984MlHQfe8Hi61UL780CjjjONWxpoHLMo5enjzwYNvCGM2iGg0DzCUb/gWC5UvQful94ltYS28o+QIXGh8cLapAwCoUOcNOZOY72v81G3VvA88i/Lw4F4bAmAEFHkBLt6DM7+zdeXs/OQd52iLXGPD4vRyGYPRHuLHe2jgfsptzrl71eK+IkaOfjrB0Uk29vIcjeiE7ODxrqaqT7+V4GYswCRCu5O3GclVVA1UjXaBzfWBUWEHBUdz/YRV9M8FMny6PXbsmHnyySftTfqMM84wS5YssU/sTSzaOThoXW27d++2+qMRcI9Jxsnuu8jBkU4up3kNIPv148V8ritaX7usb2AITAsqyIOVJIvpZoK2FQ5sTiLv3l2+ew+nRbHfDUfajhAibiCJ5O2isJvuOCaHDBEUoRIrHXFMgDvRpfIeTnDjFpKVz2SIyB4JgBJvAb/jMbrAqhLsyLXlskriCnfF3qP1eSIgaaLHq+vNrAWmExzZq2OYHZILRzREYBPlaWIs8DLab+MBHgFdY23v9c+7iOfyIPYeyARcnjRAdGKofr3MKbvIU2vlWOQE1NfXZ1milpYWC4xY4yqVStnJST5zHbJKvMnLg4DcrIXin9nbxpzb25w633POOuN0qKEutiMSCu3CHWaZDcEHyJDxVam9HOsh1QNLci8dBRxR3A23HCcGP1x0GUS02VxH+K7IlCWO1qnafXm0h9rKh2m5Tth/PmTw4cPVUfH6Ys01AUcu0HEBUqUrnL+xnbFccKOxSaOcBh27c/SCmU5wVAZGI08T7uRg6U0nQ3blxCEXRjUGaSKsz3igai4DIu/4nn3NVLkx6YU1Ry+sat3i+ZMyBPxbhJy80fJmLaJRuVGTQeINnOsucnZoVs/y008/jQpIJbNly5aq+pCdO3fyOpQX++rDuhOnQGb16Iw5Z9PqYz+9b/s3TwykLo+ATkmhaKy4o8j0CBtjAYctEOvddizoZzUB8QqwtAZf9udRwBH0AFleB3CwBZnrCCsj9amNjisi1M0d59UeXF3gUQ2oVWbBZt+7urqshk8YH15vzc3NNtBB1pes4JXAyAVC4+278jTO5QfuWR5y82L30wmORkIULQs74lZz/3atVPl95cUx1u+VaH08cFQJuubD2ZKnFgcRKTiaDyfO6aN7w+SNme4z3sB58yZAEpDEdzJIrBxONomskQAqV1QqroN5Zoap7C7vM1PqXv7c5z53NnRgZx89evS8jo6O9a961avqIeYNAPCUn6kgMXZSbbz85S+3WMF5lS655JIMwO1Qa2vr4VWrVu2AW3Tvtm3b9l599dUHpvLgp6qt9pbmn3b0HjwQCIU28dg43lzWhPuxmhwCdWaxLh9/5QMv62h6S3VwJACFcskAwFGJZekRpOODWNvirnKG7Gr3fjnW0R6OpS/iNpOHjB5k5maWbymFQsCH82KPj8yRzQqORd75t2xbPuH22qsmwK7sUzVApCBpqkbpzLYzneCIkKjsgxZ9Ea+Zk0GSO/jcQ68EL5UDTGhT2Uaickaiz0bXHFW7yGbW7BPfm3cTrq7LmngruuZsWkBu2gJq5J1MEd1pq1evNo8//rjp7e01SMpnI204Ee3fv99qJdauXTt845YJS4SlrqtgNo9xFvdNFe1pPyR88YtfPOdHP/rRVU888cQ1//zP/7wKdg1isuR0nSvfUyC5sZFxnCQDmDwROPqsMOzhfkBoz+2bwDqtxbpXc7IFyB1EaoZDENc/9MpXvvJnL3rRi56aRbudtOvW5saDtbVdvxrMFDZx/BE01CF/Ufl4PcEyWSGLXyjMHpZcV72njwqOPPvZHEh+v5eNm8yRnRdQwqRUHEmxMhGAVAmUBLQKmOE7HzJknpFcR41IQcDrjyDQBUcSRSbziTtXVIq7Kx/Iq53LCQAjjVabKxdBRT+mGRyd2lGPxgy5A3S8p4aRNp6978qL7dR6NzfW5jE4M4FeWHPjtEyoF64bjTdf3pSpJbrhhhtsfiNGpp177rlm+fLl9kl379695tJLLzVbt24dLgbqpp7gk3DlTXxCHVlYK/Gxf9LXwfvf//4rfvrTn77lL//yL7disgzjfPSDzXvsggsuuA/nYtfSpUt7wDIM4vssgCkK11vXKIqql4StksvRdauRCawBY1GDxJ5NALlrILrfhvN59lNPPXUmzvWFt9122xsBju4FSPr67/zO79w926dkVXNN9vanjnw32dH1smDRLCGgkLEl902G4stiD7oiUe0EgMBwm14epJFUKtZ4FHyXvQzuPV+AjQtGqs0D8qDghtq7YfrchoCI++FDB7PQ8zOvQ9FaufpA2W/luztPTQQgzfa51f1PzgLTBo4K/nDeh6QZ8VpE1iCxVz6HXBZIWRgM4QkhiURfeaD5cp4WueHLuwzGys/uRSLMkfukMEKrkmmpvGdSt+FpPrwLa2wmfjo1HuOl/WKYq71xkO4F14wSkBAsZk0hmzbhOBIC5kF7c3L1oZS2LtUsMOnJcjrMKTdcCRV2b67iWsNkbL73ve+Zu+++29TX11s3G904BE7UHbkFaGVszgXWaLzrxGV0aVtX4Cvsl00UiImKC49Vrm0+1fM3TnaSo0ainbgugSUYjgJZnFM9b3/91399/Te/+c3f/OpXv7oJQKAABu+RK6644ju/9mu/tgNusqNMozDVy4MPPhj+5S9/eS4iEC96+OGHXwLX3fMBmK7A/m5985vf/CW4756Y6n2eSnsbmgJ3DXVlfnnIH319LA6tG+7RERSWhR8NudVAoWVxJ8KV5Q94rjUfvmdZEO+dn3l/9UAOI91HxjnyG5XLbRSyKcwDFF7j3oZ5IRTwm0R/AiVIamyWbNZbk7Huap1ke5cRqgQm8sAhLjQ+PJCNhWvUMkRsj99Ra8RxRpe1CKsJBkX7J+5tGbvCLLl5jlwW2LWxe227DzLSb1m33LbVsukyNy0wbeDIXhmRmAEkMkFbHRlhkxj8Q4k0QjdBpWKS94CKvWXi5Q0SyVFk3+0X5YtsOBVAOQIOF6UfF9bwYLPrMmMiq0fzCWHkqYQ/cT82CSUe+Ng1P5KOjcXGjzdmx5qY5MIZ7ZSPB47y5YiNIAo8+qluDIZNCEnTApG4SZVQicgRRc7NYTXrvZo3dxyOI07yz3nOcyxjdOTIEevSoGB0/fr1VhsxXgbfWbf2GB2QyaJa1JO4CHl8krSPeZ/srQM2oYtRJibRh3Di4t9MnHnLLbfsbW9vfwTbJydqg4985COXfelLX/r9z3zmM+din3kwQw//5m/+5tcAln4Bl5r57Gc/O9GmTnm9iy66iIXKHuALIOmbX//6118EV95v4u9XQ9T93He+852ffdvb3vat888/v/+UG5+CDVYsXTpw7+NPffJ4x9A1wXBwGXyHSApZzv+DGzJwqgkhA3bRAiNxrXnyBeZfY6pacbaNxtL7ghGIl5BuEttznBcQpRbAvZgh/EXcm4X1qWRneHgcC3Lfrbz/CjDi9gQ+kgmbrmkCJI4bicJbs2bNcJAD+2DZePSHY07G5MiDtpftW1jf0zWzC4bKbtl5c6863WOfb9tPHzjyyg2aFIBQLIpKzqEwfMqIUAhFkDo+YtL0MVuwwgyqJ+dAqmbEak8MbtIu+X2EUULxQ/i0R9C7p9u0Cag9TnjMcwX+fMzfmQBtrGXMzce5HCLIMyL+7XwOFy5AZAo3kSzCXpNFaAEs2LMXtNblqX4S5s0NhzdlPsHyhk4XGhe5GfNpV8L4p7OczXTetFydhuxnxE3jTTx8cfIiQOI7j5XHzolLJrUyYCogi3garE4/8kPdj0nuB2B6fg7N1rjM0f/93/9t/a//+q+3/uu//uvVAF1BiKQfeNOb3vT597znPfc89NBD02mCqm0/73nP68IPX7rvvvu+9alPfep1d9xxx29D9/T++++//9fw/qG3vOUt9894p7DDpe2t93cMJL88mMr+Sa6IDOyBsMkjMSOZ/1KJoIZMUbAcVcZItfKdlPdwgqMyaGLfq7EiOTzs5XDXigR9JpkYNNlc2sTwnGofANA2mSfXY+D+XeklcH/j/sRlxu85N/CaImtEwC0Z5gl++MDB64rfcZyRSSIwklxIbkSpnSmcY3KPq9K1N1EWyGW8JsN6zsa4WIz7nE5wBCSCC8Tn+XiLrJ+TIaXqlcVIpRCFA2bEio3L/7ww0ZGLisSQHUj2HxJ8sQSJXYcXIbIFhzyA4wEjvPh7+SUiZm7DnNJMKS3JyDxKc2xc4V32oy8V7vZnrTgWOBpPPepHeRCm3A8CJNE7SBlkOBQwsTAu5hye3ACYyouCo+qnaN7YhWOXDAlv7PKEK4JY/kYXG5+CJ3rjnWs3scrJUo5DJjopasoJia4NvvP4GaHHdTiJ7dmzpwcA8kF8dxN0PAm4wI699rWvfQJlVY584QtfGPOQwcqs/PKXv3zju9/97t/AxBgFO/c03GffeNe73vWt0ULzZ9KGAMRUC/8PGKvHAeDejmN9PvRPn0R///0P/uAPvgrx9oyO5bVL27JP7jnw8R17Dl6YypWeH6rDeWDuI7jDSrgvMZqMbjQPNDiPmBZA8PHTY+arubz4XSoL4ELfHJZMKmmKaNcX9mOM4/7OEjkFRmWeDKyE2XFBS6XLyp03eL1wXDF/GB88BGALYOK1RjcuARF/o/BcUhaIRklce/yeoGm0hI8uQyZuuMpjd8dTxXVMQ8ybB7mZvC7mwr6mFRyFWDYmn0YdMEz0ePrgpE8/cwnCvrqaBquh4ZVAwFNtsBccsFT5O/NpuHoGeQKVd+s+s3XcvLZPWqz/e5wxWb6Aq50kbunFbYwFnkaHQOO51ezNg/cfAqNyOv0Sntzy2QS+RvjriAtyRm+cc2HATrAP4zIJE2xn2lfjGBZXkptTRp50RQsxnrZn2js6yR1US64nxyJsmAAiAkFeq8xLA/diBsV4+1BWhWLluxEC/xOAhmFNzkc/+tFRe/T9739/G+rSXUrXJADGbwBgLUN00n6E1/8bXFc/uuyyy/o/8YlPTPKIpmez3/3d330YDNbv/9u//dsboUl6O4DSXz/wwAMvuvnmmz/wkpe8ZNf07LV6q1s3rDl072NP/lWhe2hpIp3aSg+AdXcVEEXppe4dZo6IiKweyD4tUrvghfsPvyyIwn2YiR7xN5mhEO5tATz1lXIJfIE5oRQylBLwvki1pUgrXJAhWtFKfaoLtsVFxqNif5lZvru7+6SElg0NDfZ6I6skwIj5xAQwsT3ZlxvOX2mpStaIv0/kAcbVKtGtpuz/TI7sU9vXNIIjZryguI4sSNgi8yD8zUlUZE709JpAQ9SGcHoXAKlU53oq4w7BNN61JpEMoh+CIBlXmhvxYNkj66orh5vyKYYXZrkOjmuak2K+qtisNB6COTU7n7Q2MNuYSzBMVSMKPOJpCrw2LuKo8YM5YtLMKNikdGpYbK7gqLol500CPnZfRMe8GfOJVqLY+GQ7n1kjHpv7ACOfBRxJlBCfzDlhUR+C7wYxUX0P+p+DsMeTECvf8453vGMfIsrGveJuv/321RC1X/c3f/M37+ns7NyESS4DVq4TDNEvf+/3fu/Dr371q3dCbzRuO7O1woUXXkhQ/6UPfvCDByEU/1NEul0DLdT//Md//Mf7//AP//DWmezXZeduvfvOx3f9ze5DJz6YyeU3hOM1phhA0kbcXykpqAzn99idsh+gzBxJf10miQJslIE1uWQ/wFESYIgPyxRigxGnK4wPxPQ0lAvFVrpg2aYkbnQfiGU9CdXneCLrKBo10RQxhJ/Aie+83sqifsswcR25FrmOCLBFvjGWa1vYrdEAkgviHDaVgmyKX3WZgxaYRnBUyrGCPKoSIqoqYIYQuRZuaDVrtpxnBjpaTSJYj2KDz9YbuYNLFDXClAwPsApDem61cubWMvCwTxh8GsEFUA2LjFfgcNysclUAV+XNYLTzPV7biBMGxQwgyWrVsGFtQ71paltuhrIlk8mlDOJIOO3wBuUVBtKl0gJ4HJ0fC8euPKGKZkLcANX0OvPjqEZ66T79c8IRwa0AI05KFFfDnWQAblh095E/+7M/+9e/+Iu/2M5W4BIb95ABnNZBT/Q2sC8vR3tnYp8+7gflV+556Utf+pHf/u3fvhm6pHnjvvjzP//z23BMT0M8/g7oq14PndTHAO7+Ha7AryCRpBfWNwPLVeds/tZtD+3IHzrR+zfZXOm8AhieAMs+Ue9QjlDjzZVibK8QNu+5fNIdMbUA4WFtGQILi/Am9HUeN5kEEp8WURIHjzLweFpNZZ46gjI4qgQlcp9nmzy/ADJFXDs5fM7xHWMqgxftk0HJkDjO/zKAnyDda9QVQWdmQZG406RvHIMuCHMZo2qMretKc0/DaN+761iWDXNHGXgpOJqBcTzZXUwbOMLlk0P2NBNGpFUabrViJmuWrVxnVr72zaBUM6Y/DwEm2JByuNpJ/R+m3cc5KtH1uFoi92KkS03QvyvmY7O2iCIbsH5zL0WJN7i9iIsxsI/tVdHLkV99sT+Ndy8e/XcfovpCYdT9ySL/hnXglUysqdlE6+rNUH8aLkrbW4BL39BkT/xC3g7n3E4glXqAajeysajzmbSRuH4ltFg+z6Y7TZ6GK+0mT74CfNxrS+wprjJxg/CJnOuJboRP9mBGDMLbrWiWdeQQeTaAiasH7rDOidoeoOgSuM4+vmvXrktk4uPkB63OT973vvf9wfXXX7/7Ax/4wESbmzPrIYXDcXTmb+AG3AHX2p+ASfpbiNDPgLvwY0gkeXSmOnrNhWd9785Hnn76SNfQ29LFwEvyfrO06CvWc/8M3bdjhEwRotooNqBagWDJ3kVxE/UwE6UNBU9PBiRUzCRMaqAnY3KZNB4EMuFgBCKhmlwpW8pFfQGkZgjk0S4fcPIEPRg7fAjM8LrG30N49YFt7IZrrAvvfTjfA/guibaG8HcCbrIMXLNteL0ESTjfg3EWpotVwBVdanRXiwuN/SJ4kocRV+jN8Swskns/qcYQudeqK+UQQOQmcBVmDGAuhGvBjz6rF2CmBvUE9zNt4Chm8snaYrbo80XwrICLBRRqtDZuwo3bIMLLmnYCl2B1DkVgQ27ChKPnp7Ywp4xZni2Illa9FQJIEZTDkwo/hZDLg247P8SGtoIzPueRrVWWZ09Q2M9wDrhqlh4bGNHdyBvJaEsAaQ94wUbKx1KAv56swmAfbIhkUQO4EYVz2UJDwL9/gud5Ua3GGyTPmXuDkolcbnZSiJKTtoTKj0ebj2XEsUCMu2+2ITfWaiJPl36fqpM2HsCqvNFXgkq5uVd+z/7LRMJ1eO1QSM31mGuGGiIBRFyPYAglOay9T5w4QQF6EhqQwCte8YrS2WefnYbGpg96oRWHDh1qw7ETHFRdkEgxgtemb3/7278HAPQ6iLRbuSILjAJg7UHI/Ode+MIX/oDAaKpsOFvtfPKTn/zGxz72sX3//d///bd33nnn62CbbUhD8Ddvf/vbmRJgRparzj+Dmbzfu2vvMx/tGixs7E8XcRMvtuE81+JWCfYmADxUChcLvloAp9ZkLr8smTWNOV8wlmcqgHw2G/KVButi/oMr48EdqUTgxMr1q9K+tUsTsQhATjjSC6pvEELvDKKZsxhXRQCdIoBPie94FZiAE9dqAX+TJcpDlD+ervDpRx55pISx8ZsYb0uoR+KY5NgUMbYYj8CIY1IYHXkXplOYKgFJ7gO3/CbfuQ8MkjqA64geikEX7IdNY4B7PB4Katyo6xk5obqTCVlg2sBRTSRyBAxHDzRArbFoxKTSOdM/NIgQTuTsAS1L/3IJkQtjhdRTejPWUvlk600CJ4Og0bYvBQdw0SKSjtwMNsskUzbEM8kaV7E4tA9Oenw24oSn2Ug2ROGNvpARG8O0pJ3HwE+DoYz3FIN/wRAKP4LC5pNYCflA2N9aoKZUX3oI4bV9EzrLi2wl3HyivOFIJJRkkubkLa4r0fOIe2eRmajq4QqIqgRTovGQMHu5sRNY0o7UdjDihxMEb/wUvfJaIlihzTGhF5Ah+hDWewLurf0QWm/D+ive+ta33ouJ6RqM9dVwbUQ3btzYiKzUQbjYzkQHrVutckHds4ux3d8BHF2K9pr4u+hKAIpugWvtfchb9CCYlgVzShG59gC0VL//+c9//u0AkK/9u7/7uy9Ah/VpuNq+AHvNmJtt8/pNR2BUvm4bzbgd/YlwT/9g7YnegZqBZLoG2MgXi9QmGxvr0q0N9UMbWuuhwp6ZBczRUmjP4tSyMX8YxybHNgE8gTsZJIqxpZ4heyXpJCS1hGiQ+M71ZcxzXV4Xbp4k3lv4mfduYYk4/vni/lnjDeyf3Y7XB3JslciK4VpQ1mhmhsQp7WXawNGypvq9TfHILR2JoddnwRIFmecIfmLiHQ6eLAZSOIDyB2PkGxpLUGNJFYd4qmzHFkccYymCjfEjlQBkdzY8tRQJms7BNIPmkUcSbAL+uYBI0IxHUNHnjmRmoy4exTwq8LM+u9H75zEKXtJKKzAHV22fSKijAqAzQ32mJuR/oqE2NqsZdU9ppM3gyrjhDII2z+JGFZZMuBT9yo1OWCMBTRK2O4NdnHO7cgGR+7eEP7PDos1g6gGOUX7mjV+S5/E72hhgiL/l8P1OTE6PYWLohFvjzpe97GUPve51rzvw4Q9/+Abk9/kHTCBX4Tyt5v2Abg66PlZgQbTWb0J/9AAi1PZxv0iQGIF7ZB0AwuvhInsbNEorxIDYJgPB9Z1nnHHG18FA3Yp97Jlzxp2CDkGYfgDN/AUYowd//vOfvwes2bsBMq/4xje+8U9Ia/DkFOxiSppob6hhosue8mtK2pxsIxiLTRhjuPTDFgRxLDPzPF9kMWW8ShoJYUglQzbfua177/ACi7xpU1givrMtPmgRHPGa4CLMMMc3gZkALz5ISE4lrDOe/mKyh6/bnaYFpg0cbVy9NPWLR3f/fXb3gXU9fZ2XhmJ1NqFYFoI78CGITgD8QOTaaAtHTAZp5kdbRPcw6u9jGIat5uCzCyJJZCabRJLKqGlobDLJIT5ZgHaFeDxXqv5A5k0cBDcxXh5V9kJeKQdoRGhXHQB5xUFGB0eRzEhyTJQI8S5E/LMuIfQvmks+unndmn957gVnHjzN878gNwdVvQs3oz1IrHfmjTfeaCddshgERZzIhQnhZ5dhqqYjWJAGqjioSqbItYMAF449Ak0u4obkZ7EnJxwKX/mEDFZnCBPAzddcc80/Qx/zDETEtvLnxz/+cbs9kjd2AeyE8CS9jk/w0jbbhSDbB6B0OWqPveqee+75Mkp8XAlA9RY8cZ8HbdJqbi+TGliTO1Gf7CMADr9C+ZU+uJ4W/OmCS+07EGofhQ7pt+E2uhaRef+NiLZ/hI1+cNZZZ+lE64wAjKcVcKFFJO8RfxJgI6wPwYzrPuP3BDKuS17GmzCnogusdLdJO9yPZOjmtVSZK4ltywMa2h4ndnnBD+k5e4DTBo54xC84b+OT9zx98LX7Dh75ze6B5AuHUoPtxUI+iEEUwAAJBP3D7EvlAKHcuRhBYEMFAhm++DEwmSPCU1B7i/ztaQBt2MRJ3w23BZaJxFEgEooWA7W+cH/viQ1dnXtDRPPHcXPfvHnTkaI/wpIEJLrYDt8pFLIvJKYulPz9XmbJZy0ENlR7I0QP7nj8XHlsyEvpaZ0qFvkKP+eoF0dW/QCxECEiU6+VoqHIUE08/uiGtrbPPPf8rTOmOZizo3eUjqEUx8O4wX0ITMO//O///m873C02UoWMh4Bq0RXYgfNsgdp8O+TT6i9tIk/BbkP8jgCIthKXJP/mdcLfOAEcPHjQTiRgdwxqhdHFloF77Bhy83zhNa95zePVOgaXQg+29ZMtQpFX+7TNPnDC4FM1vmv8yle+8n6cu98G2GIRVOs+474JprDOruc+97nMbv1fAEU9cDOd1vHPt43f+9733vuDH/xgPzJpP4SM2m9Dhu0PIartaoz3TwEo7p1vxzMd/cX4CsIFWdfW1mb1bXT9cgxz3IrLS9zD4pZ1Ez+OpiVy3W1u2D/HrrTNcSquOnkAk+uL24gQvHzfmbCydjrspG2OboFpBUfc7eVnrCa78XeP7T36kaFEKg53F8YmKkUCJPmR4polDMsAQsCBBTX4UIpCzj16122o2UnACINNgAwDJgiGCGrcl/XtstFsPhGMxSC9DgYbfvLjJ156/09/+tbBwf5tvb1dR67/q7/+6y1nngu/eonRYARhBEUClCAGKpR8/hT3JRSQvHvHUgoHAO0oPKpKEXlpBIZnZBfE2cNN2xpxINq8kDlfoYhqRjAFJqXceeuXzpjPfr5eONC8MKT3qxA/Xoww6HdyWCCZIFkJAxbDMkm8UYo2QIqajidcnq/2GKvflcBIdHziYuAEwoUTCl0T/J6iUrh0bPg9JxR4wuzvSLI4hM8dcKuVwGy8FQxHBFFXD8PmJ0VXwf5DaMdPton15GSfnFDIRKEds3379gYk8WsQAT1B0znnnHPftdde+8mtW7c+MNdzFk33WEGKAgrW//Mf//Efd6A+2zuQCfxV0HVdjsi9z77hDW/4HrKA9093H+Zy+7i2QxivzQDqw+4tMkKMjKT2xwa8YKwJiyNuLzkmjmeJXnMDKFyPhYAp/i4PDIzCFCG2gC6OYUksye8I2Kg5wtgv4J40OJftuJj7Nu3gSIx77vrlnNTn0sQukqaBBx68/38aYoFjH/3ov35ooK83mx3qPnbeWcsOL+aBMd+PHTW41qPy+aVw7RhkRDZ4ijT4bG+OKOxJ184wI+JGmsz34z7V/lcyRnLzL+eRsYBIhKZ8+mbWYRZopZuSTBxcW4YTEMELxNV7MaE8AjapEdmezwezcfFPfvKTvYhA+yu4N++TvnE7TBZRgiwJ8edvZJI4YW3atMmcd9551kWH9rIIy78PeqL/hIvudpxPvS6dk4ys4XfAxtuRUfvFGOO/8T//8z9/Axbp5XC3fQHs3S0XX3yxdWkutoV6Q4yx1WQmyRxzTHHMUmvEcSduNbqCmUWbL45vjnU+OIlbzI1Mow0F5LiRbbxW+D2/49gm28qgBD6Ecf8UgBMUsU3+zYcJfo+xH4IoOwZAFWH6gcV2jub68c4YOJrLhrj4okvoQvvum9/y5jffededl/7qjnsvxucZzUg7l+0z3/oGVmMlXA3vgXD3TDxFW8aIT2vIhUNGwubW4ZMi8+IgJNhOyAzv5c2NizBIEskmwkoXSAiIEOZlNm0kgtBKrZCwP3JTl2OT4xRdhTwBC0sjVc05ifBFO3DyuOuuu6gnskAIrksDVogRN8OhyZhoNqItP1yYnXgqDmMSWPqrX/1qPdxjdaiB9vHNmzc/xdBstPMCTEDt8rTNfvFvngPRgCGqDe7tzSkA2f9GDbVPARztmI/5imZiXCBtQR/285X//M//fOxnP/vZy+6+++7X4Rr48C9+8YvtcDn+F87TL1HDbVFNvhhPQVzXMY4pgheOWb4IWIQx4vhnUAHvBQRFZJTIlPI7bifuXl5HwjLLNcI2hemUv3ndcB8ESARB/Jvv/N6NlGUbBGVsH+zp8/H+Xzh/J2ZirOg+Jm4BBUeOrc4/9/w7b7/t9ut3PrXr+fj6QxM3o645lyzwne9856XIMPxyRPHUEBRxgucNiSwHJ13qZJhvh5M9WAkD3Yq9adooyrIuQY7HfSqsxrLwO24ngKOaHcYLHjhd28nTrbgBRDAqYImAQ/QRvCET7IjuQrYVsSknCkSY2VIee/futZMEn3S5EFySeWMbEEtbW11++eWiAyLAiaMPSzG5NGOfywBufGwXLp/L/vZv/3Yb9EKdzF0DoMW8RHVsl32Wp3HJns19kY0CEOsBW/QtAqPTtdFi2B6h/YxefQIg8k5okV6C1/Vg+f4diSPv+4d/+If/fd7znnfPlVdeyQfBBb9gXMXx8BNnDiPJcSTvHLcc56Kn40MSxyl1ifKwI9e9AB+CJ65PEO9GsUnUmZtWRlx1Uq+N7mMB/hIMwv2TlQVI2grGar2Co7k3JBUcueDogvNvw+DN4QliDcKJV8Adw5weuswjC2BCXQlXwxuhW1mCxIL2CU0mXf7NmxldNrwREhgQKFEnAB2LZZFIdwutzidM/k1g4bIrNAdvgMK8jAWMZsJ0As7kCVdAkohK2Qceh4AmAUb8XbIF06UAt8MJuB26AIIKDJ/Hdw24BlqgGQpRG8SCsBD92lBouihY9oMibALMtWvXWjthkmilrbguc7pwXQpiAapqYetasQcnLQIt9pWTjQA56TPPBUOxwTxdh+3uBqhdVMzH6YwbuNRux/a3//3f//3NsN+r4U5+IdyczwVIvQfA6QsQs98N9+SC1rpgPLWDwWkii8MxyGuZ7wQlHOtc+FkAjySGFHAkkZllracdnwRXHLf8zQVDrnhb7gvy0MTrju5ibst3yXvEz2UWaikeRH4L292Hz5rv6HQG/hRvq+DIMSierB6Cj/4wwNFS5GG5CD8pOJriATfdzWEyuBz7WA/h7jAYEDAjEVYEQwRJdA1R10KXEULLLbUOtsMCJz7VcRE3j7jahD1yRZoiuJzuYxutfWFeRL/DG7TcnEUc6gIiThhch/oLvgA+evHdzyB4/uzKlSuPgWErwUb1+H4jhOyvgqvmSug2llx11VXWZYBJ1oJK3uwpdKc4my4E2S9tJZOB6+pj/+lm4JM6+0W7k8XiuZBoH67D72h/gK44QvpfhJQMP8DX98yWfefrfv/qr/7KgqR/+qd/ugLn7HVwKV+Fh77PglV9BIklv/aCF7zgdgi7Z6wUyUzZEUDHh/F3DQDRcilqzDHpAZWkBUUBpPbmfUCADq8Puoj5Hd1q3E50RRyL/Mx1hWEVlxpBl0SnsQ3RKvGdC/fr5lfidSGibbbL6wEPCWeiz3xwGJgpG+l+xreAgqMKG+FJ+Z6bbrrpzZhkr8dP3x/fhLrGXLHAgQMHGv/f//t/b8JNqp21uqRcgDzlyUTtusJ4Q1y/fr1lOuCGMAiRtmJtCrlRisI+KUrElqszcsGSRLvNlh1E7CnghP0QoCRlEeQmTvaMSRrxGgQ7BA9a5xHY6n48GHwauXIqEyje/7Wvfe3uz372s3+KArBXYjLddN1118XI6iBCyromOeHwqZtAh5ODAEV54pakeZwIqP1CLh77jsgqux0nCtqYf8tkwjbZDtfFpL4V5+RN6O+DAK3zpqDwbI2FavtFEd+78f3d//zP/3w5HvquhXD7JWBYPwBN0gkklfwaHhJu+fVf//Vdc6nPp9MXgJFWXJMvApgJCdjmNcpyUdkcs1ozv1ka+eygL0oADA0OQbC90bqHec/gWOYiyU15/RPEcOFY5SLuNoImGfeuxo/3GLkGhXUSBomsqzyosV1co8vBZq1Es3Mmmefp2H+hbKvgqOJMMn/K17/+9deASbgIN/Aw3C2jZ6pcKKNggRwHbjh+AIU43oPiGhO63BVbu+JKEUdSc4SMzJYZ4ZMjhdu8odIFBzZlOPTfpc3lZsg2xMU2G6Z0XVKim+JTrjzpsp9keAAwBjBxPAVwcw/ch3fieHcjpLgPx3ccrFBVt9XrX//6/ajp9V68LkYbL0Vm5ucjEucsRJ9FCGz4kkgfSbaHSaUEMFTi5IJ9+zgBYJsSQGeOmi+6D2Bj5qEJ8SleioIKu2UnMrB4BLhgscLY77lw9bHe2oJjOWZyvKAOHdm3e1Cv7esASdfgAfD1yCf1x2Dn3gRg/FOApJvf9a53PTyTfZqOfeF6WIextFlAiYirc9kcrmlW+gSLlMt778xmjWwy7UuWDoMhuXfwuiHAsfU2AYLIAIlmSBhkfuZS6U6TdeXalIcEeVjhGJdahLgeCI4uVXA0HaNh8m0qOKqw3ate9ar7cEM+AHS/DELGq/HzLZM37+xvCZdEG9iBVjAjzXgqqgdzsBTvLXgaasSTTAsu0DpcyEFOWHgVCDBwoTMxGaq9BDKY4PrxtNSLiXYQF3gW70l8l4Ibpa/8GsAT1wBAxRDWSwJMzlitp0rroj+DmIAfw0R6MfrYyN95c3L1QnITE20BgQ0ncQIiTuJkjMjEUHAM1sS625gKgOHAUquN7TkZbu2T42yCI7k5sx98shVKn8ADKQ0Yft+N430AAuhvgY25A+doP8b4hEE/gBPDwW+HduVuTKhn/fjHP/4TAK0XQMjeigk1KG40AKV9sM0h2CmPyaQG/anBewQ2DuA8+DB+wminluMN48VHG1IsT+bO1W250YEXXnghXZ/12B9F3AqOpuCW8s53vpMs0a4vfelL30dk23PAIP0u2PJ3IIrz1YgMvAcRgjfhIfEeuKZZBmReLbincVxdi2t6KTtOYMQXWRsyRe71z1RzHGtnnLEZQLzdJBNDw5GqottzIztdF7HcV3itufojYaWFxZXoNilBIi44/k4Wl/cS3D+juEe/CHPON3EPY249XeaABRQcVTkJmAh/BL/82374wx++cL6BI0RqbQDjdRkS9F0NQewZ73//+5tw0cUwCZVwkyjgxlHCBc0cICG87DsBEc2ASY4AKV/5GZNclr9xHQIkRhxhEvaVy0fkmKMDrzRuSFkk50vh7x5c5B1gC3rAUPSAGSCQ6gZjcQyuqm5+xkQ95QJbtJ/D5P2Fxx9//FI8EV8CQXaEGiJO3rw5Si4SEViLC0gSHPL4CCgoFCZzRD0S9TSM0iLIoLuNUVR0K/FmxxujMDWum03+PtXrWwDbaNtV+503Y/afAI/gje5BJmfEeT6M87MHN+An8NtDcJvdChaI9bkmvQAMUUjxGHLqvAfXBpMOXoib+hXIIbMSdqmH22sZbOzDOMvBLjH0i8AICV8LJbx4vouwWQ79DGJCYKZ8K+wWQatMNCKg55M13Z4Qe9OXoZmEJ33mqm/45je/uQO/fBtuy5sRuXklrp3fAEN4DRi9K2655Za9KG77LUS3PQyX27yJFgRAX4mx92sY+2G5Nj39WxJMDYEM2aKc1Rxls0jfgXvDtrPOMfGamBno9/Ju8TqSArIuK1u+Rw5n2ZfP7rv7t2iW3GSQ/F0Ak6QQoDsPkaEbcd3wAUDB0RSP88k2p+CoiuVe+cpXfvy73/3uG6CpuAZFHtuhs+BNZM4uSAK3EmDuFdCQXPfBD35wNSb1Olx4zKqdw0R+EECkA5PXMwAoxyCGPQ7wksDknscNJIObAcqh+JBRvOTDBMaM4ZYnJkDiEz7T8DOhGiaqMCbcKG4+ZJzqwbS0Y+JtBZhoAPCKQaBbh+/bsE2UoAvbs+JjAftiplr+XcS+kwBM/WSjfuM3fuMogNN+gKVDeHXgBtGDsPt+AKdeTIhdcKlMKnkdnnifQtLBv8AE/pd4XQ6RcQO0MtZ1Q4BEtoI3QAFGbukAgiAIVg1qVlmAJIBKcqUQKLFMBpkkpgVgG5ILhRM615MClxIuL4ySADPXFSdPn1IAl9u7kVtSgkDcTfK7iDy5f9FAMHIMoDADELcfx3o7XGafgUvwCBiaHrBFWdTkmrLxi9xRnWjsP+GaiSGH0WtQ/+x1AI4X4TpphYtuBZki2IUMpN1n2Y1J4J1B3wlyQgLmyNi5lcyFkZPOliPsBmArjeSZsjN4ckMQZRO4Mq/brah/dyaA0evBnL4EDwj/BOb5KO6Ht+KB8WdIq3Avxv6krstp6vqzmsU4ORNj5gwRR1NflIMLLQetESsTJJOsn8lSNUz06GmJ2pe2IoKtd7hmgQQxCJARZmi0oAx5aBFNYiVAkjQa8rvokUSozUhQXKer8KCxDdvunylb6X7GtoCCoyr2AbV8DDeC7XBHXIoyCC/FKp+fiwMJFbk34gn+rSg8eT0m82aAlCIAxk64hn6CSJ8nMSluB1vQyazG073ABRkFC1AL/QmZqjr0pQmvNrzW4LUB3y0F2GzEDXcJJsClmDDPwgSZpHuFgIKuGICnBADbAG5YnW95y1sOADQdZvQUwN1xMlAATXTvJek+A3ga1S0EPcydYE/eCHD0XujHfh8RWU1MWEjWh09pZCTkBkimhfYh28Is2hQZu5W1yRZhcjB4grasEt1tmDzs+ixzwVw9bIuTPBcCGN78BLRIZJwknhO2yQVGAiAEMEj/JILLpejJ1vHGT+DGd7r9ANi6EC6/HXZ8AIVY/w+url1wjUx7PhskFuRE+UVkZb4P4Ov/YWK97P+3dy5AW5Z1Hv5AERT80BIVlEJbQRNlMmpbDTcbZMrQ2q12xtRWwdOo6TabWjltrO6OhqadXGe0wHY3O6zOtLluae1qUJZJrWYm2mBYJp4RCOVDzb1+L9+feWAQvg/4TnC9M8+8p+f0Xu9z38/v/p9ujj+WG+jusa7VBJ75Hfy/rdma8zpskt2Wm0YFp4ZBOFYdmQjDpFzDeyWB8ovZZwSZjx4mwPQjD3CIT99www1X426bSrs+icHXCZRsmE7W4j245G6hb7yb8IP1g/d7+Mw2vXva3mCuualcV3ukzXR0rEkWyHOsRrn21kxI9QrvcbEhlg6dNJHrMHMHdrTEUTPjso64vvWo4o2a32/IctwcCKWtVtxRialc72nHec+AJgPN93L+d9D/aT3a9N/d42s4I/CrIL7qqquOpHDatxAZ9M0/O67H/4luHICb/sF0WCdj4ZgWwUEjW0VcyNcQdd+kENyD3dhVr62KKBqGpWk4QinCqR0x91qEyZ48H4x4mZDPuMGPQGTsiqDYHRExLBYuLE2DETSxcq1KpxHrQ2KcyHi6HzfOQm6mL3Radl7g86V89nRnlskOfP5asp0u4v87Oh1RAqsjjiqoMp0lGW6tYoeJfcnNvDquWJoS75KpRijv0LLoVGxNZ3Bzi11u9KnzkznbIoSqIy2B0xmU3Po8024wtUNbLFnZJmKr4muq3k8Fi+d41XFmX8mcy3knTiHuPgTRagTjnYjhWxAR9+M+vA9B2WdTa3DjfA1Whilcj+9nmQLrcVjxWha7CoitmK1wiyhKzaR8h4BvTbdQ6dNxaWIFy3/yG66BH+O2+wbp6Lf22sXqgdYS4H8dRhs6kv92RgLjYxEmqH7JQQcd9F2sSfOxUC7oL9W3ab+j6Ddu4jqbkna1dOmylps5A564xZcittOmcu2lLQ0fsXMbkyO3fmuE+DNPPtW2nO9iIc73la6fAUn6jSypg5ZrOq8zqKuMtqbVKG0421exyQyc0r8kcSHtt6YpybkkIzNFaDurZadP+yAxeBGoPvqYgOJoI38A1X+/S9zOeGa6/vjnPve5/+jj/6qNeIAdmSJgFjfZ6XFjcWNewo32+uOOO+4mYn2W9vX5bcnx+U07UV+qnY5jBB3a7oimUYiluAgnEYy7D5/tSueyNx3VSDrAsemYeL0aU/QriJw/MTJ7MQHh3GSXY4HqoOPZkU5qJOuNybQASV/Powohlqm8Rm/Nc49wYV6qlvssnWysHOlQ88hxq9ptOry44eLSSgeXatEVz1T1VSoYPO/jtot1KvWVMtdTue3qnMpNl861AjjTMUd0RUhl+6TAp/AilqzvI4TPZl+/2RLuPbHtBRdcMIPYtxn8xrdyfQ458MADWxwjPvNbI0qzcONtuS9PPfXU1s2m+PD7HuXGtACL3VxcPvMRngP62u4Jxn2xz6985Sv7E5c0lX5oOu10LMK8A8vpL/l/43K7F6HRp9cibWQyIuXbtJl9YqF96qlnWtXeI45S8f2PXH/pCyob8pBDD25L7a607YiTJ5Y83hIvEVLVP6Qdps3n+kwma4RRlvQJnX3Q2mrzTetRJW3kms9S4ijHijhKH5LPU3w2g7Acn+9WsN/zMmVOX/y/HnNdArrVNnJFEFsxC+vRNzEtfwRLze3MYfR0X11AF1544QlnnXXWmdxMUg9jKefyWUbc/44wWs4En311WlvtuNwA4yYL3yyLa8eIo0GIiGFZEEjtZNS86Zprrvk0YueQZD+Ve4nOKEHn7YjZvdNJRWBUZkg6ulbK7gYeuVnXxKlZPyO5iKLU4onQ6ey01maBpXPLaDGiJd+nc00l6Fg7sm4sPNlfvssj66ajzKNGlzm36qAroLrcbelwq7ZSCjTGfZcRbKxbGQVn/7gUV7DeL/qjMMrvnD179hzE0XwsnOfj9n0rwndSrG8prhneubGUGzIiKRY1GL7ATenX/NaHEKa34577LwTgEtLPt9o15o62jMDMmTMfZg/XImr/jfT/I4hz/DBCdjLX/uEIpmUI2Xnc2L+HW/8+RHGvZ7ohON6NmNk7baomS161qlGZmvZJFkDbDrTzWAX2GT2G50FtOw8dRjD2mvqLZbmtuL58ln7h1eKNysW2fhJGudRyvVfMYAVi1/vqD8pazee70g9M5ty/Sjswxm7LLtct3lpxtBGE55577l2MiG6nYNq06667biar9vp8axTfG4f4uZCbzV9ysxzK+XwJUXQ9wu0Z4gK2+ALo7ztgZEokQFtiW7Is5Ub6GJaaJVgZ3gGPt+AWG09HMirzedE50jfu1LLIVEeHYEkg8GqsSen9ltP5vYBwWUYs0YMJKscatT/B1Xsyf9eocp2VOInYqeDtjCjzeWWgVBBxZzBlK5MtI8J58+a1kR7dqplEMHjrPDJCzKMsTs203ioiF7GVjjkWIlLmW6b9uM/S+ca1R7bZWkG23377DUYkju/P/x1Wn1gRTsfSMJZJgC+mts67cP3tHeta4rRiMcpv5Oa6mpH9A7hmbqGA5/VYIR4mO+1lBiX9+edt1+c2bdq0NLCUOPkBfdBeicvE7fbXZLy9h3Y5nVIPjzCv4W2I27vPO++8XqlsTrtpx8J6ZNx+laWWAVFHx5oJZMuCm/aU92mviYsr1wnplGurWUesdE6Fs05mWv3p5Tqv5419XiKpKYTWF0k1QMp+OM83IpBScXKbnt5lIDQg3Wqb+JcQJWMQSd+msexM6uvZzFeUkvy98uC4J3GznYELbTSm3F9jOfoEN5B+GVPUK0DWOwhxKTsgjsYkGB1z+UgEzGux7OyOFWJfRl+DUp8Jc/iTdDZ/TIYcsRLJhIvbbRkWt2V05sNvvPHGCQiN91MM8S+wAh1FLEXLqlOB1BnllUiqYM0qDFeB1/m+XseKlAltY0bPvrIkTiHCKllwccNF6MTVVCKuczbwuAIfwPy/ENEXAfcSlqIpjMAn4J4aVFWjY96PCOOmtOD000+fgZXlvr5g351jIvbaOd/j4fIu4sb2wuo1AqEYl+hSxOXDiP25tK2fdmefrtu/CBCXNIS+6u0IpZkMXg7gJj+CNtVBe7uXGJr/ZbBwJzFxPRbETVt5A+3zv2ln4yM+li9fxtQ4T+JSW7J2iqC061hf034ZZCLSR7dEU9VBSjvsnAewNRCpdp+Mtixxq6UtZym3Wtp1WYnLAlSiKf1F+pG08/QHOXa51coinVIjyXzNup3W1EUIt/cSszdgyif0rytx652N4qgLLJmscQoB2nOIRfnVRz/60Qt7utQ+6dGvZ/kUWVSH07D+yEjtn6nb41QmXfivNmcVRNYQRrsTmBLjH+F9DC6dYSn62Mxqi0hK55UOMp1spe0303zzWTrLbJfOMHFOsY5km1iS4iaLQMrriKPEQZAOn3UexBp0CwHM/4JL7lGsKx1YU3ZiAtErcaOdwbm0LLzpyNOpZsRLpeoXuD7mcFM6Z3N+c19tg1AaCYe9EKsdxKw8jXVtjVnNxzZDgAFlO663I3G1vY/reBJCYxDX7EoExcOUl5iP2/oXCKV7tuYP5jjvxAp7E8J7t7TPCJ3HH3+CNvhoK+YooiQW3AiVxBQedtibiRkaunYutAqUzroJnE47zrqxJtccaBFEmRcw4qgCsqsKffUD+U3laovgqSlycvyIo1iGc27pI3LMuOAzQXajZloH+5yFG/qyrcnHfXWfgOKoi8xozKcyKvr4hAkTfsSkjbMot7+4i5t2azWsASfjljkTi8hobph34Oe/GNN0j424unVy2/jKVMSeSEr6malvhUtgYmVblWWoMsrS4aVTrPpH6UAjXMo8nueabiDxNEn/T0ebeKF8l4rQ6SwTgEz80DyOc+nhhx/+I6xM66TwnnLKKVcjrM5ETA1OZ53ONCItx2OW9TZieu4iff4UshTNbtnGr82B+vPmzp27P4OO6VyvR3P97kPCxFDa0UuIpUeIM/whwch3EZT8IBbSzS7VgAVyMKLjEixVnyyrbqyrixc/QizbY62ByrPPLqXNLW9ZaDIpddzhNa9f2mJES9pXhEsEUsRPLEFp4xncpP1FGCWrckOWo2YNo7TxZsZa9lH7zrlkkJXj5RkXcsttvsYFuKaCN5av27jPvJ/+wpT+PrzwFUfdgM9N6BJcMB8ksPTuGTNmXImb6/+6sflGVyW26PVXXnnlZ2lEk2jYK8iQu+zLX/7yt7bW/t1P1whgzRlERtmhjH5PwKLzXjqu8Um9jyCJIKoMszKlV0dYRedi0q/ih1XrKB1h3G3JVKuMrcQlkeG2+PLLL/8Ao+mfb+jsEOTXs9+/xXK4VozVSDajW4TcU4yCZ2NlvKJrv861JNA3BLBw7kDg9gSSW/6c2lxHI2jGIzpoIju/Qlt6FmHzCIOGTF1yD8LlcVzgf8Bi2qUq+rTZUbSTOQia6fl1ERrJUkv9slhrI34ieiKGOE6rNEesQOUKj2BJu45lJ6IqsX4RQGlrNa1Q5/yAryqOctz1g7Yr9qmmMMm+c4xK7Y9gikiLWy39Sc4vgyyWlOY4Ftfab/vm3/KoIWBAdjeuAzJvPoXLZTCugb8iY+qfsOh89vOf/3wqy27Rg5TsU4hlOodGPZIG9RA1Xc7EgvS7LdqpG28WAUZyCQC/N8usWbNuodr2+YiaKZRKaE98QHWo6fBiHapijmUWr+kHki1TFa0jkjJCjDk/4ihxDVmfTn0k6dEzsS49yij6ifVPGHP+6tRh6iyi2DpeOuB05HGt0amOIo7nbbjvBiPYzW7ZrH/cjXqDAHF2SdnMrPNZ5l577bUTaFdvw838bmIqx9EmJpGROZkA/lhOUpLjWQajjyMQErP0K+LuHiaQ/w8E7q/jhiVZJhX7JyGMJlVJjKoxVFmilVaf71PrrKYHibusLDZ5LmtPbZdM03xeGWflLtvQczFsZq2VNaniFquoa9YtC3AGU1W1P+e1Jl5q+Z6IusNYTXHUGxfnqxxDy9FmwD/ttNOOZ8qET9F4XuSmN5+0+u8Ql3Rbd3d10UUXTWPCxwsYTSTzaAnulS/gKvlad/fj+j1HgGrYr7v00kvPZDQ5DXM8mf4HD0sHW4UN04GWG60Za5DXNUVJXlf2S9av6QTI8GkjIHwJo9J7zz///Mtw1f6w+UtOPvnkr+J6+/AZZ5zRCgitzjYjz4x8I7IopHg7QfozsS7ZkfbcZeCee5AAgdyDYlWiyOR4iqS+AyvP/gwi9qT9tNN2Mg3NasREKr530A5WMhBYmar5CKiXsby0028eQOzOkbHsZvARK1GyIeMey3OsrLEepZRESnVkkJFHnuPKKrdXrDpVFwl3d8sNHmtORFNca3Gpbcqtlv02xVPEVZbspyxYsSDVknbc7E+yLb9hNb/rOkoifITzyGDNRx8Q0HK0GdBJ6/86vvRf4Na4hNH/Ubw/ipH/QgJpv8UI6ecf+tCHNjpfx2c+85kjEUV/R4r+RG54r9AQ5lMI72ImejQTbTP+j57cBEEUC94nKb45l7iJ9yFeP4ggfhMd8o5N03usOSWAqlZKziufRdRUEHdlvOV9zPv896MJCG9nmpNRxxxzzK/JmPsmLtv5yarDtbAssUUlhtLJZnQZoRThlQ6czJaxzP93kKPMnrwK3HdPEiCmLgJgYefyHWooDcWK9Hqy3kYjcA7AsnQYFtR9Mq8jQmZv3HLDEVKTEREjiFcaikV2V+Iz14nziTWmMtHS/uJOizjKIwIqg5S02YiWWHHi4ko7i2ipwO1sV2U9NvX7mzFHG1q3aq7VwKimEsl5VjB4hFn6h0yaizDbFaEUFdcl1+Kmzs/vu09AcdR9Zq0tCJaNkPkbLEZTyRw6jQv7EOYiuoQsjWVkIv2exrqATJx7abiPZA4xRjC7MyqaTCr3e6j7Mo5G+TI317uxFszFpfaD3AR99F8CuD5Tt+dy6vXcTLX0fyDL7DCE04Sk5Sd4s4Ipa9qBMqVHBJWrreZ1S0eazjmdcEanlBUYTgHEN2NFOgB3wyRGujfgKvs68RnPZL2MhFOXZf34pox8EVD7EvB6HFOkzGOuNwM4++8l5Jl1kQAWkwiChzqXljWVzLdBxAaNRCyNweX0Ol7vj3h6M5aXg1MbiLi+XdP20t4qpb4qsactkhnZanMRQ3lOcHUsOWUBjihKjFLijyrrNN/HUlS1zrp4+uusVnWOyoJUg6OcUyxdeeS8c4xYp/JMP/EnludZV1f55kDfStvoVttKIMkamow4Op4g3oMZgYxipDCUhjqYxvEyy0u50POaRrGSkf8iiqRdx4Sxd22lw7ubXiSAwB1OrM9ERq/HE2j9biw441M3JSbyPNIpp/NL35bOsSaKjbhJh5iOMvEOeZ/XZXHKtrjRnkd4pTbTEvbzOkbQ+xCc35bMuaxbs9aXqT+dOVate0mPvoByE9127fYiNg8lga1KgAHlIATMG7C8XEMbmxrBUxahuNNiicmSdhNra4RThEgET6YA6ZzPrGW5iYs6pTfyWdpohEossylYmm3Thsu1tqFstaqiXS61+qEl0GKliujKQKeCsnPcav85t+w/AyisVSs4xyuZLHvWVgXmzrpFQMtRt3C9+srMZr2Ab7MkDmQv5sAaT6DtARnp0GBWE0D7e1xvvyV19X5mjV+RFG8fA5MAQiRBoXcxcl1AJefv4tY6A5GUgo17kIK7dn61Cs5Mx1fB1Ol8Y6rPCDYdaoRRDRDzmmtkF1wF4wj6H0XpiFfSYcfClPXT0abjznbZZzriiCysR29kepsZVJu+iyDtZQOTqmctge4RoC99hezhJ7Ak/Yo2NDXtKG2r5i1LO4ngiEBK1lqJo4iTJDrUFCFpk/kuoimPiKHsK5+XsMrnGwvIrsKP9Quq7Zdoak4nUpbkZsX9CK5Ocfc8Qmwh3/VaseHuUd9+1lYc9cB/zUg/mUdZ5jd3T3p4DxzNXfYVAQIpk4FzK5aku0nJP5FYiXcSP3QE7tQ9EgORTrBETJnTa5qQykwpYZT1ygWX34MAG87I9TlcsGunHYllKiPQiKR0rFk/I1pqJA1ZuHDhAbjW9mJTxVFfXRAet9cJkO6/gvpkixEyqxOjk4FEBEksSHnUVCAROjXAKAtsJU2kTZarraYHqmyyqpuUQUiV6ahsthI+TQGUY9Y+yg3ezGDN6+yr4plY/RleL+UcMrnyCr5fzHbzaeM/63WYHnAdAoojLwgJbCEBhEwm2fwCtVy+gWvrZOKSPkCQ6aFYkobGfN8ccUbY1COddFmCau6nipeI8MHEvhuB2Wvnhiox1IyByHYx/VMzaS+sV3uw78Rq+JDAdkOANvUQgmQlA42dypVdIiWDiCq5US7pGohk3eZS1p9qg02BVAHU+Szip0p4pP3lfY5Rn9f2FQOV45Ugy3llH4ix5zj2Atb9H5b72fZ37PM5npfjTotQ8tHHBBRHffwHePhthwDB2U/ya2YTS3Yb9VpmEGD9NkTLZOq0DIrJPh1xWX0yeswot2qclNk9NCoWKWb2xD1ku3S+eU5HG6tTVefOZ3lPKvOeuOLew+Z3bjtE/SUS2DQB2sQi2kySF3YvV1m1ozyXlTZtrvloCpyyBtX3NaApMdSsS1R1lHKstL8Ip1h0SxTVsdO2S4iV6y4iiX0/jQi6ifW/yvIg9ZwyuPLRzwgojvrZH+LpDHwCF1988T38inOvuOKKA8k4OxuLUqpg75352lK8MSnD6Sxjyk/HnQ62TPPlfksnmniJxD8kZqJiGNJJl6m/ArmzDzIkhxDrdngyIancvnjgU/QXSKDLBJ6kvfyctvFnJVAqtb75XJlsNRCpNpc2VS62HLHaWl6vHzOUzyJ6ykVXJTxKENXxyqVWcU553ymUXqCNf5/3X2RZyMTRcc376IcEBvfDc/KUJLBNEPjYxz62kOKOn0DgXEVw9R1MbvtcCtNF8EQYpVMu03uJomaHnA416+aRjrU64GyT9Ztm+846KiNIaR6xTcDzR0igiwQoq/IcbemLCJP7mjFDFSOUttO04lS7qVpI5U4ra1G1xaZIaoqmsuBWen4GOs0s0nLVNd109VPY5yKWb/D+wWOPPVZh1MX/uC9W03LUF9Q95nZDAFdbag/NZrqZG6hHdCzLUUwwO2306NEjU3slMRFlnm92pjVXW2KWkpZc5QFq9JvtYjFKB525oFjnRQrdLWSahce3G7j+UAl0EiA2707c1OcgVP4ecfJWhNGefDW42ktZXNcXPGlzZe2pwUcz82xDFqhmDGGJphJlea791ICmEYuUyXW/x/bzsBitGe346LcErHPUb/8aT2xbJECF7dFURj+LFP3pBHJPpCL2jhFAzcDQjGwr1iEpyNQ9SkZaq5Bdc56nTGabVH8Kj65AJP2YaUQuPOmkk365LXLzN0mgKwSYeWBf4vEOYTAxFXEykXYxhu32IGYvFaeHl4hp7qsEUFlyy82d9+uLo2p/JbYqULvpoitxVBbevGefj3E+3+O8ZjM/pzMhdOXP7ON1FEd9/Ad4+O2TwDnnnDPtJz/5yQkEa09hJvL9MrVBBW3HTF8ugQReUyKgjQk327A2tar6pk5LrElU1X4MgXQPZQNupwjlLSeeeOID2ydNf7UE1iVAWYudKLL4GpaIpbGInLHECb2FtfJ6FM/DEUvDeL0zy9AsFXvUFEfrC6SqTdYURyWY8l2t3ymI8pRK1wsjjBBLV5PB+pj/1cAgoDgaGP+TZ7kNEqCievutt956FJahU7AevYPMtpElkuI2y8iTGKI21mujdlIrkBtBtYoA7YcQSj+mo/1XstR+y0g0NbV8SEACGyFAcsRIBh67IJJ24bmd9hWRNBpRsy/PYxAweyCYRrDswjKUz4ew5DEI0TMYN3ZmPBiMtSjv49YexOs1K6zx173Ey1VZ+H4V369kP7/hWHew7x9S5f45/6CBQ0BxNHD+K890GyVw8803j54zZ84ZWIKmIoImUSV7BBPStrLSqMLdRiB3GxV0l2AxeohO9qfMPXUjVdYfYC61VOr2IQEJbCEBBig7MvjYifY1BFfckDxj8WmJI4ROtE8eCSjaoVMM5cO83oHPdsxABiG0mvcrWTpouy/hynuRdZ4/4ogjbKdb+P/0xeaKo76g7jElsAECBG3vT3D12xctWnQs7rMJdM670En/nhHoT5lS5D/HjRv36Nlnn/2o8CQgAQlIoGcJKI56lq97l0C3CZD2vxtz743EarQb1a+fodr2Ekafpv12m6QbSEACEpCABCQgAQlIQAISkIAEJCABCUhAAhKQgAQkIAEJSEACEpCABCQgAQlIQAISkIAEJCABCUhAAhKQgAQkIAEJSEACEpCABCQgAQlIQAISkIAEJCABCUhAAhKQgAQkIAEJSEACEpCABCQgAQlIQAISkIAEJCABCUhAAhKQgAQkIAEJSEACEpCABCQgAQlIQAISkIAEJCABCUhAAhKQgAQkIAEJSEACEpCABCQgAQlIQAISkIAEJCABCUhAAhKQgAQkIAEJSEACEpCABCQgAQlIQAISkIAEJCABCUhAAhKQgAQkIAEJSEACEpCABCQgAQlIQAISkIAEJCABCUhAAhKQgAQkIAEJSEACEpCABCQgAQlIQAISkIAEJCABCUhAAhKQgAQkIAEJSEACEpCABCQgAQlIQAISkIAEJCABCUhAAhKQgAQkIAEJSEACEpCABCQgAQlIQAISkIAEJCABCUhAAhKQgAQkIAEJSEACEpCABCQgAQlIQAISkIAEJCABCUhAAhKQgAQkIAEJSEACEpCABCQgAQlIQAISkIAEJCABCUhAAhKQgAQkIAEJSEACEpCABCQgAQlIQAISkIAEJCABCUhAAhKQgAQkIAEJSEACEpCABCQgAQlIQAISkIAEJCABCUhAAhKQgAQkIAEJSEACEpCABCQgAQlIQAISkIAEJCABCUhAAhKQgAQkIAEJSEACEpCABCQgAQlIQAISkIAEJCABCUhAAhKQgAQkIAEJSEACEpCABCQgAQlIQAISkIAEJCABCUhAAhKQgAQkIAEJSEACEpCABCQgAQlIQAISkIAEJCABCUhAAhKQgAQkIAEJSEACEpCABCQgAQlIQAISkIAEJCABCUhAAhKQgAQkIAEJSEACEpCABCQgAQlIQAISkIAEJCABCUhAAhKQgAQkIAEJSEACEpCABCQgAQlIQAISkIAEJCABCUhAAhKQgAQkIAEJSEACEpCABCQgAQlIQAISkIAEJCABCUhAAhKQgAQkIAEJSEACEpCABCQgAQlIQAISkIAEJCABCUhAAhKQgAQkIAEJSEACEpCABCQgAQlIQAISkIAEJCABCUhAAhKQgAQkIAEJSEACEpCABCQgAQlIQAISkIAEJCABCUhAAhKQgAQkIAEJSEACEpCABCQgAQlIQAISkIAEJCABCUhAAhKQgAQkIAEJSEACEpCABCQgAQlIQAISkIAEJCABCUhAAhKQgAQkIAEJSEACEpCABCQgAQlIQAISkIAEJCABCUhAAhKQgAQkIAEJSEACEpCABCQgAQlIQAISkIAEJCABCUhAAhKQgAQkIAEJSEACEpCABCQgAQlIQAISkIAEJCABCUhAAhKQgAQkIAEJSEACEpCABCQgAQlIQAISkIAEJCABCUhAAhKQgAQkIAEJSEACEpCABCQgAQlIQAISkIAEJCABCUhAAhKQgAQkIAEJSEACEpCABCQgAQlIQAISkIAEJCABCUhAAhKQgAQkIAEJSEACEpCABCQgAQlIQAISkIAEJCABCUhAAhKQgAQkIAEJSEACEpCABCQgAQlIQAISkIAEJCABCUhAAhKQgAQkIAEJSEACEpCABCQgAQlIQAISkIAEJCABCUhAAhKQgAQkIAEJSEACEpCABCQgAQlIQAISkIAEJCABCUhAAhKQgAQkIAEJSEACEpCABCQgAQlIQAISkIAEJCABCUhAAhKQgAQkIAEJSEACEpCABCQgAQlIQAISkIAEJCABCUhAAhKQgAQkIAEJSEACEpCABCQgAQlIQAISkIAEJCABCUhAAhKQgAQkIAEJSEACEpCABCQgAQlIQAISkIAEJCABCUhAAhKQgAQkIAEJSEACEpCABCQgAQlIQAISkIAEJCABCUhAAhKQgAQkIAEJSEACEpCABCQgAQlIQAISkIAEJCABCUhAAhKQgAQkIAEJSEACEpCASHxTWgAAAJJJREFUBCQgAQlIQAISkIAEJCABCUhAAhKQgAQkIAEJSEACEpCABCQgAQlIQAISkIAEJCABCUhAAhKQgAQkIAEJSEACEpCABCQgAQlIQAISkIAEJCABCUhAAhKQgAQkIAEJSEACEpCABCQgAQlIQAISkIAEJCABCUhAAhKQgAQkIAEJSEACEpCABCQgAQkMJAL/D2XA+gAL42kNAAAAAElFTkSuQmCC;clipPath=inset(3.64% 11.33% 27.27% 0%);" parent="1" vertex="1">
          <mxGeometry x="70" y="280" width="245" height="140" as="geometry" />
        </mxCell>
        <mxCell id="Bu_Xx9DlRC_FPrtzAdTw-4" value="Robot Control with OPC UA Server" style="text;html=1;strokeColor=none;fillColor=none;align=center;verticalAlign=middle;whiteSpace=wrap;rounded=0;" parent="1" vertex="1">
          <mxGeometry x="116" y="430" width="110" height="30" as="geometry" />
        </mxCell>
        <mxCell id="Bu_Xx9DlRC_FPrtzAdTw-5" value="Physical Robot" style="text;html=1;strokeColor=none;fillColor=none;align=center;verticalAlign=middle;whiteSpace=wrap;rounded=0;" parent="1" vertex="1">
          <mxGeometry x="176" y="290" width="60" height="30" as="geometry" />
        </mxCell>
        <mxCell id="Bu_Xx9DlRC_FPrtzAdTw-6" value="Tech Pendant" style="text;html=1;strokeColor=none;fillColor=none;align=center;verticalAlign=middle;whiteSpace=wrap;rounded=0;" parent="1" vertex="1">
          <mxGeometry x="46" y="320" width="70" height="30" as="geometry" />
        </mxCell>
        <mxCell id="Bu_Xx9DlRC_FPrtzAdTw-35" value="&lt;font size=&quot;1&quot; style=&quot;&quot;&gt;&lt;b style=&quot;font-size: 20px;&quot;&gt;Asset&lt;/b&gt;&lt;/font&gt;" style="text;html=1;strokeColor=none;fillColor=none;align=center;verticalAlign=middle;whiteSpace=wrap;rounded=0;" parent="1" vertex="1">
          <mxGeometry x="26" y="241" width="110" height="30" as="geometry" />
        </mxCell>
      </root>
    </mxGraphModel>
  </diagram>
</mxfile>
